<?xml version="1.0" encoding="utf-8"?>
<!-- Generator: Adobe Illustrator 24.0.2, SVG Export Plug-In . SVG Version: 6.00 Build 0)  -->
<svg version="1.1" id="Layer_1" xmlns="http://www.w3.org/2000/svg" xmlns:xlink="http://www.w3.org/1999/xlink" x="0px" y="0px"
	 viewBox="0 0 102.05 102.05" style="enable-background:new 0 0 102.05 102.05;" xml:space="preserve">
<style type="text/css">
	.st0{fill:url(#SVGID_1_);}
</style>
<linearGradient id="SVGID_1_" gradientUnits="userSpaceOnUse" x1="50.7026" y1="-7.7627" x2="50.7026" y2="101.5135">
	<stop  offset="0.1358" style="stop-color:#12D6B3"/>
	<stop  offset="0.358" style="stop-color:#11D69C"/>
	<stop  offset="0.5" style="stop-color:#10D694"/>
	<stop  offset="0.9136" style="stop-color:#0ED66C"/>
</linearGradient>
<path class="st0" d="M32,96.66c-7.04,0-13.73-2.81-18.83-7.92c-4.92-4.92-7.73-11.37-7.91-18.17c-0.18-6.82,2.31-13.16,7.01-17.86
	c0.22-0.22,0.43-0.42,0.59-0.57c0.35-0.32,0.76-0.67,1.22-1.01c-0.46-0.34-0.86-0.68-1.21-1c-0.17-0.16-0.38-0.36-0.6-0.59
	c-4.7-4.69-7.18-11.04-7.01-17.85c0.18-6.79,2.99-13.24,7.91-18.17C18.27,8.43,24.96,5.62,32,5.62c6.55,0,12.66,2.49,17.18,7.02
	c0.22,0.22,0.43,0.43,0.58,0.6c0.35,0.39,0.66,0.77,0.94,1.16c0.28-0.39,0.59-0.77,0.94-1.16c0.15-0.17,0.36-0.38,0.59-0.61
	c4.52-4.52,10.62-7.01,17.17-7.01c7.04,0,13.73,2.81,18.84,7.92c4.92,4.92,7.73,11.37,7.91,18.17c0.18,6.82-2.31,13.16-7.01,17.86
	c-0.21,0.22-0.42,0.42-0.59,0.58c-0.35,0.32-0.76,0.67-1.22,1.01c0.45,0.34,0.86,0.68,1.21,1c0.17,0.16,0.38,0.36,0.61,0.59
	c4.69,4.69,7.18,11.03,7,17.84c-0.18,6.79-2.98,13.24-7.91,18.17c-5.11,5.11-11.8,7.92-18.84,7.92c-6.55,0-12.66-2.49-17.18-7.02
	c-0.22-0.22-0.43-0.43-0.58-0.6c-0.35-0.39-0.66-0.77-0.94-1.16c-0.28,0.39-0.59,0.77-0.94,1.16c-0.15,0.17-0.36,0.38-0.59,0.61
	C44.66,94.17,38.55,96.66,32,96.66L32,96.66z M48.57,71.77c1.22-1.08,3.05-1.08,4.26,0l6.95,6.95c2.47,2.48,5.76,3.83,9.26,3.83
	c3.49,0.01,6.78-1.36,9.25-3.83c2.47-2.47,3.84-5.76,3.83-9.25c0-3.5-1.36-6.78-3.83-9.25l-6.94-6.94c-1.1-1.22-1.1-3.06-0.01-4.28
	l6.95-6.95c2.47-2.47,3.83-5.76,3.83-9.25c0-3.5-1.36-6.79-3.83-9.25c-2.47-2.48-5.76-3.84-9.25-3.84c-3.49,0-6.78,1.36-9.25,3.84
	l-6.95,6.95c-1.22,1.09-3.06,1.08-4.27-0.02l-6.94-6.94c-2.47-2.47-5.76-3.83-9.26-3.83c-3.49,0-6.78,1.36-9.25,3.83
	c-2.48,2.48-3.84,5.76-3.84,9.25c0,3.5,1.36,6.79,3.83,9.26l6.95,6.95c1.08,1.2,1.09,3.03,0.02,4.24l-6.97,6.97
	c-2.47,2.48-3.83,5.76-3.83,9.26c0,3.49,1.36,6.78,3.83,9.25c5.1,5.1,13.4,5.1,18.51,0L48.57,71.77z"/>
</svg>
