<?xml version="1.0" encoding="utf-8"?><svg width="818" height="501" viewBox="0 0 818 501" xmlns="http://www.w3.org/2000/svg" xmlns:xlink="http://www.w3.org/1999/xlink"><svg width="23" height="23" viewBox="-4 -4 23 23" fill="none" id="icon_agreement_check" x="682" y="183" xmlns="http://www.w3.org/2000/svg"><rect width="15" height="15" rx="7.5" fill="#2284F5"/><path d="M4.124 7.875l2.078 2.17M10.5 5.625l-4.298 4.42" stroke="#fff" stroke-width="1.125" stroke-linecap="square"/></svg><svg width="21" height="21" viewBox="-4 -4 21 21" fill="none" id="icon_agreement_notice" x="705" y="183" xmlns="http://www.w3.org/2000/svg"><circle cx="6.5" cy="6.5" r="6.133" stroke="#000" stroke-width=".735"/><path d="M6.934 9.457v-4.35h-.841v4.35h.84zM5.903 3.461c0 .335.271.606.606.606a.61.61 0 1 0-.606-.606z" fill="#000"/></svg><svg width="23" height="23" viewBox="-4 -4 23 23" fill="none" id="icon_agreement_uncheck" x="659" y="183" xmlns="http://www.w3.org/2000/svg"><rect width="15" height="15" rx="7.5" fill="#D8D8D8"/><path d="M4.124 7.875l2.078 2.17M10.5 5.625l-4.298 4.42" stroke="#fff" stroke-width="1.125" stroke-linecap="square"/></svg><svg width="29" height="30" viewBox="-4 -4 29 30" fill="none" id="icon_apply_notice" x="776" y="138" xmlns="http://www.w3.org/2000/svg"><g opacity=".65"><circle cx="10.5" cy="11" r="9.907" stroke="#000" stroke-width="1.187"/><path d="M11.201 16.391V9.365H9.843v7.026H11.2zM9.536 6.706c0 .54.438.979.979.979a.982.982 0 0 0 .993-.98.985.985 0 0 0-.993-.993.982.982 0 0 0-.98.994z" fill="#000"/></g></svg><svg width="26" height="26" viewBox="-4 -4 26 26" fill="none" id="icon_careers_language" x="633" y="183" xmlns="http://www.w3.org/2000/svg"><path d="M9.016 16.032A7.016 7.016 0 1 0 9.016 2a7.016 7.016 0 0 0 0 14.032z" stroke="#000" stroke-miterlimit="10" stroke-linecap="round" stroke-linejoin="round"/><path d="M9.016 16.032c1.47 0 2.661-3.141 2.661-7.016S10.486 2 9.016 2 6.355 5.141 6.355 9.016s1.191 7.016 2.661 7.016zM2.242 9.016H15.79" stroke="#000" stroke-miterlimit="10" stroke-linecap="round" stroke-linejoin="round"/></svg><svg width="158" height="39" viewBox="-4 -4 158 39" fill="none" id="icon_careers_title" x="618" y="138" xmlns="http://www.w3.org/2000/svg"><path d="M14.56 30.56c7.16 0 11.72-3.84 13.28-9.36.08-.24-.04-.44-.36-.52l-4.24-1.2c-.32-.08-.52.04-.64.36-1.32 3.68-4.12 5.44-7.88 5.44-5.56 0-8.88-3.92-8.88-9.96 0-6 3.28-9.96 8.88-9.96 3.32 0 5.84 1.48 7.24 4.16.12.28.36.4.64.32l4.28-1.2c.32-.08.44-.36.32-.68-1.96-5-6.4-7.88-12.56-7.88-8.4 0-14.4 6-14.4 15.24s5.72 15.24 14.32 15.24zm25.334-.16c2.88 0 5.28-1.2 6.76-3.24l.12 2.32c0 .36.24.52.56.52h3.76c.32 0 .52-.2.52-.52V9.8c0-.32-.2-.52-.52-.52h-3.76c-.32 0-.56.16-.56.52l-.12 2.32c-1.48-2.04-3.88-3.24-6.76-3.24-5.92 0-9.68 4.4-9.68 10.76 0 6.36 3.76 10.76 9.68 10.76zm1.28-4.72c-3.32 0-5.6-2.48-5.6-6.04s2.28-6.04 5.6-6.04 5.6 2.48 5.6 6.04-2.28 6.04-5.6 6.04zM57.159 30h4.16c.32 0 .52-.2.52-.52v-10.2c0-3.28 2.64-5.2 5.44-5.2.8 0 1.4.12 1.92.16.36.04.56-.08.56-.44V9.68c0-.28-.12-.48-.44-.56-.4-.08-.8-.12-1.4-.12-2.48 0-4.92 1.16-6.32 3.4l-.12-2.6c0-.36-.24-.52-.56-.52h-3.76c-.32 0-.52.2-.52.52v19.68c0 .32.2.52.52.52zm24.61.4c3.84 0 7.28-1.64 9.12-5.28.16-.32.04-.56-.28-.68l-3.56-1.24c-.28-.08-.52-.04-.68.24-.96 1.56-2.44 2.36-4.56 2.36-2.76 0-4.52-1.72-5-4.56h14.2c.32 0 .52-.16.56-.52.2-7.12-3.44-11.84-9.8-11.84-6.52 0-10.48 4.48-10.48 10.76 0 6.28 3.96 10.76 10.48 10.76zm-.04-16.92c2.24 0 3.8 1.44 4.28 3.88h-9.12c.64-2.48 2.4-3.88 4.84-3.88zm22.569 16.92c3.84 0 7.28-1.64 9.12-5.28.16-.32.04-.56-.28-.68l-3.56-1.24c-.28-.08-.52-.04-.68.24-.96 1.56-2.44 2.36-4.56 2.36-2.76 0-4.52-1.72-5-4.56h14.2c.32 0 .52-.16.56-.52.2-7.12-3.44-11.84-9.8-11.84-6.52 0-10.48 4.48-10.48 10.76 0 6.28 3.96 10.76 10.48 10.76zm-.04-16.92c2.24 0 3.8 1.44 4.28 3.88h-9.12c.64-2.48 2.4-3.88 4.84-3.88zM118.068 30h4.16c.32 0 .52-.2.52-.52v-10.2c0-3.28 2.64-5.2 5.44-5.2.8 0 1.4.12 1.92.16.36.04.56-.08.56-.44V9.68c0-.28-.12-.48-.44-.56-.4-.08-.8-.12-1.4-.12-2.48 0-4.92 1.16-6.32 3.4l-.12-2.6c0-.36-.24-.52-.56-.52h-3.76c-.32 0-.52.2-.52.52v19.68c0 .32.2.52.52.52zm23.161.4c4.76 0 8.2-2.44 8.2-6.24 0-3.44-1.72-5.6-6.8-6.88l-.96-.24c-2.28-.56-3.2-1.12-3.2-2.08 0-1.08 1.08-1.48 2.44-1.48 1.76 0 2.84.84 3.56 2.12.16.28.36.4.68.28l3.64-1.16c.32-.08.44-.32.32-.64-1.28-3.52-4.12-5.2-8.12-5.2-4.68 0-7.88 2.56-7.88 6.08 0 3.2 1.92 5.64 6.88 7.04l1 .28c2.2.64 3.08 1.12 3.08 2 0 1.16-1.28 1.52-3.04 1.52s-3.2-.56-4.16-2.24c-.12-.28-.36-.4-.64-.32l-3.64 1c-.32.08-.48.32-.36.64 1.32 3.6 4.48 5.52 9 5.52z" fill="#fff"/></svg><svg width="26" height="26" viewBox="-4 -4 26 26" fill="none" id="icon_lang_select" x="607" y="183" xmlns="http://www.w3.org/2000/svg"><path opacity=".01" fill="#D8D8D8" d="M0 0h18v18H0z"/><path d="M14.07 4.47l1.06 1.06-7.53 7.53-4.73-4.73 1.06-1.06 3.67 3.67 6.47-6.47z" fill="#2284F5"/></svg><svg width="18" height="25" viewBox="-4 -4 18 25" fill="none" id="icon_link_apply" x="800" y="45" xmlns="http://www.w3.org/2000/svg"><path d="M1 1l7.5 7.5L1 16" stroke="#fff" stroke-width="1.5"/></svg><svg width="16" height="22" viewBox="-4 -4 16 22" fill="none" id="icon_link_ceb" x="800" y="92" xmlns="http://www.w3.org/2000/svg"><path d="M1 1l6 6-6 6" stroke="#fff" stroke-width="1.2"/></svg><svg width="19" height="27" viewBox="-4 -4 19 27" fill="none" id="icon_link_introduction" x="569" y="183" xmlns="http://www.w3.org/2000/svg"><path d="M1.25 1.25L9.5 9.5l-8.25 8.25" stroke="#000" stroke-width="1.6"/></svg><svg width="19" height="27" viewBox="-4 -4 19 27" fill="none" id="icon_link_introduction_hover" x="588" y="183" xmlns="http://www.w3.org/2000/svg"><path d="M1.25 1.25L9.5 9.5l-8.25 8.25" stroke="#2284F5" stroke-width="1.6"/></svg><svg width="16" height="22" viewBox="-4 -4 16 22" fill="none" id="icon_link_thesis_list" x="800" y="70" xmlns="http://www.w3.org/2000/svg"><path d="M1 1l6 6-6 6" stroke="#000" stroke-width="1.2"/></svg><svg width="179" height="194" viewBox="-4 -4 179 194" fill="none" id="img_thesis_list" y="307" xmlns="http://www.w3.org/2000/svg"><path d="M154.351 186H16.986V13.1h98.036l39.329 39.387V186z" fill="#CBFF5E"/><path d="M171 99.506L71.643 0h99.313v99.506H171zM80.143 3.529l87.29 87.42V3.529h-87.29z" fill="#000"/><path d="M118.545 25.803H.998v3.528h117.547v-3.528zM118.545 41.902H.998v3.528h117.547v-3.528zM118.545 58.001H.998v3.529h117.547V58zM118.545 74.1H.998v3.529h117.547V74.1zM118.545 90.243H.998v3.529h117.547v-3.529zM118.545 106.343H.998v3.528h117.547v-3.528zM118.545 122.442H.998v3.528h117.547v-3.528zM118.545 138.541H.998v3.528h117.547v-3.528zM118.545 154.64H.998v3.528h117.547v-3.528zM118.545 170.783H.998v3.529h117.547v-3.529z" fill="#000"/></svg><svg width="618" height="45" viewBox="-4 -4 618 45" fill="none" id="text_careers_business_title" y="138" xmlns="http://www.w3.org/2000/svg"><path d="M12.904 28.504c6.444 0 10.548-3.456 11.952-8.424.072-.216-.036-.396-.324-.468l-3.816-1.08c-.288-.072-.468.036-.576.324-1.188 3.312-3.708 4.896-7.092 4.896-5.004 0-7.992-3.528-7.992-8.964 0-5.4 2.952-8.964 7.992-8.964 2.988 0 5.256 1.332 6.516 3.744.108.252.324.36.576.288l3.852-1.08c.288-.072.396-.324.288-.612-1.764-4.5-5.76-7.092-11.304-7.092-7.56 0-12.96 5.4-12.96 13.716 0 8.316 5.148 13.716 12.888 13.716zM29.636 28h17.136c.288 0 .468-.18.468-.468v-3.708c0-.288-.18-.468-.468-.468H34.028V2.044c0-.288-.18-.468-.468-.468h-3.925c-.288 0-.468.18-.468.468v25.488c0 .288.18.468.468.468zm31.838.504c7.703 0 13.32-5.436 13.32-13.716S69.176 1.072 61.473 1.072c-7.704 0-13.32 5.436-13.32 13.716s5.615 13.716 13.32 13.716zm0-4.752c-5.076 0-8.28-3.744-8.28-8.964 0-5.22 3.203-8.964 8.28-8.964 5.075 0 8.28 3.744 8.28 8.964 0 5.22-3.205 8.964-8.28 8.964zM86.615 28h3.348c.252 0 .432-.108.54-.36l10.332-25.524c.144-.324-.036-.54-.36-.54h-4.464c-.252 0-.468.108-.54.36l-7.128 19.332L81.18 1.936c-.072-.252-.288-.36-.54-.36h-4.536c-.324 0-.504.216-.36.54L86.076 27.64c.108.252.288.36.54.36zm12.186 0h4.464c.252 0 .432-.108.54-.36l1.872-4.932h10.98l1.872 4.932c.108.252.288.36.54.36h4.536c.324 0 .504-.216.36-.54L113.418 1.936c-.108-.252-.288-.36-.54-.36h-3.348c-.252 0-.432.108-.54.36L98.442 27.46c-.144.324.036.54.36.54zm8.568-9.792L111.15 8.2l3.78 10.008h-7.56zm27.412 17.64h3.744c.288 0 .468-.18.468-.468v-9.648c1.368 1.656 3.42 2.628 5.868 2.628 5.328 0 8.712-3.96 8.712-9.684 0-5.724-3.384-9.684-8.712-9.684-2.592 0-4.752 1.08-6.084 2.916l-.108-2.088c0-.324-.216-.468-.504-.468h-3.384c-.288 0-.468.18-.468.468v25.56c0 .288.18.468.468.468zm8.928-11.736c-2.988 0-5.04-2.232-5.04-5.436 0-3.204 2.052-5.436 5.04-5.436s5.04 2.232 5.04 5.436c0 3.204-2.052 5.436-5.04 5.436zM157.444 28h3.744c.288 0 .468-.18.468-.468V1.468c0-.288-.18-.468-.468-.468h-3.744c-.288 0-.468.18-.468.468v26.064c0 .288.18.468.468.468zm16.327.36c2.592 0 4.752-1.08 6.084-2.916l.108 2.088c0 .324.216.468.504.468h3.384c.288 0 .468-.18.468-.468V9.82c0-.288-.18-.468-.468-.468h-3.384c-.288 0-.504.144-.504.468l-.108 2.088c-1.332-1.836-3.492-2.916-6.084-2.916-5.328 0-8.712 3.96-8.712 9.684 0 5.724 3.384 9.684 8.712 9.684zm1.152-4.248c-2.988 0-5.04-2.232-5.04-5.436 0-3.204 2.052-5.436 5.04-5.436s5.04 2.232 5.04 5.436c0 3.204-2.052 5.436-5.04 5.436zM189.269 28h3.744c.288 0 .468-.18.468-.468v-9.036c0-3.564 2.16-5.256 4.428-5.256 2.448 0 3.564 1.44 3.564 4.536v9.756c0 .288.18.468.468.468h3.744c.288 0 .468-.18.468-.468V15.868c0-4.284-2.484-6.876-6.804-6.876-2.376 0-4.716.972-6.084 2.952l-.108-2.124c0-.324-.216-.468-.504-.468h-3.384c-.288 0-.468.18-.468.468v17.712c0 .288.18.468.468.468zm21.713 0h3.744c.288 0 .468-.18.468-.468v-9.036c0-3.564 2.16-5.256 4.428-5.256 2.448 0 3.564 1.44 3.564 4.536v9.756c0 .288.18.468.468.468h3.744c.288 0 .468-.18.468-.468V15.868c0-4.284-2.484-6.876-6.804-6.876-2.376 0-4.716.972-6.084 2.952l-.108-2.124c0-.324-.216-.468-.504-.468h-3.384c-.288 0-.468.18-.468.468v17.712c0 .288.18.468.468.468zm23.586-21.96c1.548 0 2.736-1.044 2.736-2.592S236.116.856 234.568.856c-1.548 0-2.736 1.044-2.736 2.592s1.188 2.592 2.736 2.592zM232.696 28h3.744c.288 0 .468-.18.468-.468V9.82c0-.288-.18-.468-.468-.468h-3.744c-.288 0-.468.18-.468.468v17.712c0 .288.18.468.468.468zm9.162 0h3.744c.288 0 .468-.18.468-.468v-9.036c0-3.564 2.16-5.256 4.428-5.256 2.448 0 3.564 1.44 3.564 4.536v9.756c0 .288.18.468.468.468h3.744c.288 0 .468-.18.468-.468V15.868c0-4.284-2.484-6.876-6.804-6.876-2.376 0-4.716.972-6.084 2.952l-.108-2.124c0-.324-.216-.468-.504-.468h-3.384c-.288 0-.468.18-.468.468v17.712c0 .288.18.468.468.468zm29.561 8.208c5.868 0 9.864-3.312 9.864-9.252V9.82c0-.288-.18-.468-.468-.468h-3.384c-.288 0-.504.144-.504.468l-.108 2.088c-1.332-1.836-3.492-2.916-6.084-2.916-5.328 0-8.712 3.96-8.712 9.684 0 5.724 3.384 9.684 8.712 9.684 2.448 0 4.5-.972 5.868-2.628v1.692c0 3.312-2.448 4.536-5.328 4.536-2.52 0-3.96-1.008-4.86-2.556-.144-.252-.36-.36-.612-.252l-3.024 1.116c-.288.108-.396.288-.252.576 1.44 3.564 4.896 5.364 8.892 5.364zm.468-12.096c-2.988 0-5.04-2.232-5.04-5.436 0-3.204 2.052-5.436 5.04-5.436s5.04 2.232 5.04 5.436c0 3.204-2.052 5.436-5.04 5.436zm12.907 7.848h3.708c.252 0 .432-.108.504-.396l8.352-30.024c.072-.324-.072-.54-.396-.54h-3.708c-.252 0-.432.108-.504.396l-8.352 30.024c-.072.324.072.54.396.54zm26.237-3.6c5.328 0 8.712-3.96 8.712-9.684 0-5.724-3.384-9.684-8.712-9.684-2.448 0-4.5.972-5.868 2.628V1.468c0-.288-.18-.468-.468-.468h-3.744c-.288 0-.468.18-.468.468v26.064c0 .288.18.468.468.468h3.384c.288 0 .504-.144.504-.468l.108-2.088c1.332 1.836 3.492 2.916 6.084 2.916zm-1.152-4.248c-2.988 0-5.04-2.232-5.04-5.436 0-3.204 2.052-5.436 5.04-5.436s5.04 2.232 5.04 5.436c0 3.204-2.052 5.436-5.04 5.436zm19.927 4.248c2.376 0 4.716-.972 6.084-2.952l.108 2.124c0 .324.216.468.504.468h3.384c.288 0 .468-.18.468-.468V9.82c0-.288-.18-.468-.468-.468h-3.744c-.288 0-.468.18-.468.468v9.036c0 3.564-2.16 5.256-4.428 5.256-2.448 0-3.564-1.44-3.564-4.536V9.82c0-.288-.18-.468-.468-.468h-3.744c-.288 0-.468.18-.468.468v11.664c0 4.284 2.484 6.876 6.804 6.876zm21.749 0c4.284 0 7.38-2.196 7.38-5.616 0-3.096-1.548-5.04-6.12-6.192l-.864-.216c-2.052-.504-2.88-1.008-2.88-1.872 0-.972.972-1.332 2.196-1.332 1.584 0 2.556.756 3.204 1.908.144.252.324.36.612.252l3.276-1.044c.288-.072.396-.288.288-.576-1.152-3.168-3.708-4.68-7.308-4.68-4.212 0-7.092 2.304-7.092 5.472 0 2.88 1.728 5.076 6.192 6.336l.9.252c1.98.576 2.772 1.008 2.772 1.8 0 1.044-1.152 1.368-2.736 1.368-1.584 0-2.88-.504-3.744-2.016-.108-.252-.324-.36-.576-.288l-3.276.9c-.288.072-.432.288-.324.576 1.188 3.24 4.032 4.968 8.1 4.968zm12.857-22.32c1.548 0 2.736-1.044 2.736-2.592S365.96.856 364.412.856c-1.548 0-2.736 1.044-2.736 2.592s1.188 2.592 2.736 2.592zM362.54 28h3.744c.288 0 .468-.18.468-.468V9.82c0-.288-.18-.468-.468-.468h-3.744c-.288 0-.468.18-.468.468v17.712c0 .288.18.468.468.468zm9.163 0h3.744c.288 0 .468-.18.468-.468v-9.036c0-3.564 2.16-5.256 4.428-5.256 2.448 0 3.564 1.44 3.564 4.536v9.756c0 .288.18.468.468.468h3.744c.288 0 .468-.18.468-.468V15.868c0-4.284-2.484-6.876-6.804-6.876-2.376 0-4.716.972-6.084 2.952l-.108-2.124c0-.324-.216-.468-.504-.468h-3.384c-.288 0-.468.18-.468.468v17.712c0 .288.18.468.468.468zm29.597.36c3.456 0 6.552-1.476 8.208-4.752.144-.288.036-.504-.252-.612l-3.204-1.116c-.252-.072-.468-.036-.612.216-.864 1.404-2.196 2.124-4.104 2.124-2.484 0-4.068-1.548-4.5-4.104h12.78c.288 0 .468-.144.504-.468.18-6.408-3.096-10.656-8.82-10.656-5.868 0-9.432 4.032-9.432 9.684 0 5.652 3.564 9.684 9.432 9.684zm-.036-15.228c2.016 0 3.42 1.296 3.852 3.492h-8.208c.576-2.232 2.16-3.492 4.356-3.492zm18.617 15.228c4.284 0 7.38-2.196 7.38-5.616 0-3.096-1.548-5.04-6.12-6.192l-.864-.216c-2.052-.504-2.88-1.008-2.88-1.872 0-.972.972-1.332 2.196-1.332 1.584 0 2.556.756 3.204 1.908.144.252.324.36.612.252l3.276-1.044c.288-.072.396-.288.288-.576-1.152-3.168-3.708-4.68-7.308-4.68-4.212 0-7.092 2.304-7.092 5.472 0 2.88 1.728 5.076 6.192 6.336l.9.252c1.98.576 2.772 1.008 2.772 1.8 0 1.044-1.152 1.368-2.736 1.368-1.584 0-2.88-.504-3.744-2.016-.108-.252-.324-.36-.576-.288l-3.276.9c-.288.072-.432.288-.324.576 1.188 3.24 4.032 4.968 8.1 4.968zm17.213 0c4.284 0 7.38-2.196 7.38-5.616 0-3.096-1.548-5.04-6.12-6.192l-.864-.216c-2.052-.504-2.88-1.008-2.88-1.872 0-.972.972-1.332 2.196-1.332 1.584 0 2.556.756 3.204 1.908.144.252.324.36.612.252l3.276-1.044c.288-.072.396-.288.288-.576-1.152-3.168-3.708-4.68-7.308-4.68-4.212 0-7.092 2.304-7.092 5.472 0 2.88 1.728 5.076 6.192 6.336l.9.252c1.98.576 2.772 1.008 2.772 1.8 0 1.044-1.152 1.368-2.736 1.368-1.584 0-2.88-.504-3.744-2.016-.108-.252-.324-.36-.576-.288l-3.276.9c-.288.072-.432.288-.324.576 1.188 3.24 4.032 4.968 8.1 4.968zm26.811 0c5.976 0 9.864-4.032 9.864-9.684 0-5.652-3.888-9.684-9.864-9.684-5.976 0-9.864 4.032-9.864 9.684 0 5.652 3.888 9.684 9.864 9.684zm0-4.248c-2.988 0-5.04-2.232-5.04-5.436 0-3.204 2.052-5.436 5.04-5.436s5.04 2.232 5.04 5.436c0 3.204-2.052 5.436-5.04 5.436zm13.749 11.736h3.744c.288 0 .468-.18.468-.468v-9.648c1.368 1.656 3.42 2.628 5.868 2.628 5.328 0 8.712-3.96 8.712-9.684 0-5.724-3.384-9.684-8.712-9.684-2.592 0-4.752 1.08-6.084 2.916l-.108-2.088c0-.324-.216-.468-.504-.468h-3.384c-.288 0-.468.18-.468.468v25.56c0 .288.18.468.468.468zm8.928-11.736c-2.988 0-5.04-2.232-5.04-5.436 0-3.204 2.052-5.436 5.04-5.436s5.04 2.232 5.04 5.436c0 3.204-2.052 5.436-5.04 5.436zm21.619 4.248c3.456 0 6.552-1.476 8.208-4.752.144-.288.036-.504-.252-.612l-3.204-1.116c-.252-.072-.468-.036-.612.216-.864 1.404-2.196 2.124-4.104 2.124-2.484 0-4.068-1.548-4.5-4.104h12.78c.288 0 .468-.144.504-.468.18-6.408-3.096-10.656-8.82-10.656-5.868 0-9.432 4.032-9.432 9.684 0 5.652 3.564 9.684 9.432 9.684zm-.036-15.228c2.016 0 3.42 1.296 3.852 3.492h-8.208c.576-2.232 2.16-3.492 4.356-3.492zM520.554 28h3.744c.288 0 .468-.18.468-.468v-9.036c0-3.564 2.16-5.256 4.428-5.256 2.448 0 3.564 1.44 3.564 4.536v9.756c0 .288.18.468.468.468h3.744c.288 0 .468-.18.468-.468V15.868c0-4.284-2.484-6.876-6.804-6.876-2.376 0-4.716.972-6.084 2.952l-.108-2.124c0-.324-.216-.468-.504-.468h-3.384c-.288 0-.468.18-.468.468v17.712c0 .288.18.468.468.468zm23.585-21.96c1.548 0 2.736-1.044 2.736-2.592S545.687.856 544.139.856c-1.548 0-2.736 1.044-2.736 2.592s1.188 2.592 2.736 2.592zM542.267 28h3.744c.288 0 .468-.18.468-.468V9.82c0-.288-.18-.468-.468-.468h-3.744c-.288 0-.468.18-.468.468v17.712c0 .288.18.468.468.468zm9.162 0h3.744c.288 0 .468-.18.468-.468v-9.036c0-3.564 2.16-5.256 4.428-5.256 2.448 0 3.564 1.44 3.564 4.536v9.756c0 .288.18.468.468.468h3.744c.288 0 .468-.18.468-.468V15.868c0-4.284-2.484-6.876-6.804-6.876-2.376 0-4.716.972-6.084 2.952l-.108-2.124c0-.324-.216-.468-.504-.468h-3.384c-.288 0-.468.18-.468.468v17.712c0 .288.18.468.468.468zm29.562 8.208c5.868 0 9.864-3.312 9.864-9.252V9.82c0-.288-.18-.468-.468-.468h-3.384c-.288 0-.504.144-.504.468l-.108 2.088c-1.332-1.836-3.492-2.916-6.084-2.916-5.328 0-8.712 3.96-8.712 9.684 0 5.724 3.384 9.684 8.712 9.684 2.448 0 4.5-.972 5.868-2.628v1.692c0 3.312-2.448 4.536-5.328 4.536-2.52 0-3.96-1.008-4.86-2.556-.144-.252-.36-.36-.612-.252l-3.024 1.116c-.288.108-.396.288-.252.576 1.44 3.564 4.896 5.364 8.892 5.364zm.468-12.096c-2.988 0-5.04-2.232-5.04-5.436 0-3.204 2.052-5.436 5.04-5.436s5.04 2.232 5.04 5.436c0 3.204-2.052 5.436-5.04 5.436zm20.574 4.248c4.284 0 7.38-2.196 7.38-5.616 0-3.096-1.548-5.04-6.12-6.192l-.864-.216c-2.052-.504-2.88-1.008-2.88-1.872 0-.972.972-1.332 2.196-1.332 1.584 0 2.556.756 3.204 1.908.144.252.324.36.612.252l3.276-1.044c.288-.072.396-.288.288-.576-1.152-3.168-3.708-4.68-7.308-4.68-4.212 0-7.092 2.304-7.092 5.472 0 2.88 1.728 5.076 6.192 6.336l.9.252c1.98.576 2.772 1.008 2.772 1.8 0 1.044-1.152 1.368-2.736 1.368-1.584 0-2.88-.504-3.744-2.016-.108-.252-.324-.36-.576-.288l-3.276.9c-.288.072-.432.288-.324.576 1.188 3.24 4.032 4.968 8.1 4.968z" fill="#000"/></svg><svg width="569" height="43" viewBox="-4 -4 569 43" fill="none" id="text_careers_business_title_kr" y="183" xmlns="http://www.w3.org/2000/svg"><path d="M12.904 31.504c6.444 0 10.548-3.456 11.952-8.424.072-.216-.036-.396-.324-.468l-3.816-1.08c-.288-.072-.468.036-.576.324-1.188 3.312-3.708 4.896-7.092 4.896-5.004 0-7.992-3.528-7.992-8.964 0-5.4 2.952-8.964 7.992-8.964 2.988 0 5.256 1.332 6.516 3.744.108.252.324.36.576.288l3.852-1.08c.288-.072.396-.324.288-.612-1.764-4.5-5.76-7.092-11.304-7.092-7.56 0-12.96 5.4-12.96 13.716 0 8.316 5.148 13.716 12.888 13.716zM29.636 31h17.136c.288 0 .468-.18.468-.468v-3.708c0-.288-.18-.468-.468-.468H34.028V5.044c0-.288-.18-.468-.468-.468h-3.925c-.288 0-.468.18-.468.468v25.488c0 .288.18.468.468.468zm31.838.504c7.703 0 13.32-5.436 13.32-13.716S69.176 4.072 61.473 4.072c-7.704 0-13.32 5.436-13.32 13.716s5.615 13.716 13.32 13.716zm0-4.752c-5.076 0-8.28-3.744-8.28-8.964 0-5.22 3.203-8.964 8.28-8.964 5.075 0 8.28 3.744 8.28 8.964 0 5.22-3.205 8.964-8.28 8.964zM86.615 31h3.348c.252 0 .432-.108.54-.36l10.332-25.524c.144-.324-.036-.54-.36-.54h-4.464c-.252 0-.468.108-.54.36l-7.128 19.332L81.18 4.936c-.072-.252-.288-.36-.54-.36h-4.536c-.324 0-.504.216-.36.54L86.076 30.64c.108.252.288.36.54.36zm12.186 0h4.464c.252 0 .432-.108.54-.36l1.872-4.932h10.98l1.872 4.932c.108.252.288.36.54.36h4.536c.324 0 .504-.216.36-.54L113.418 4.936c-.108-.252-.288-.36-.54-.36h-3.348c-.252 0-.432.108-.54.36L98.442 30.46c-.144.324.036.54.36.54zm8.568-9.792l3.78-10.008 3.78 10.008h-7.56zM135.25 4.36v3.78h11.052c-.684 7.344-4.356 12.528-12.816 16.596l2.484 3.744c11.772-5.688 15.192-13.968 15.192-24.12H135.25zM156.238.904V34.06h4.788V.904h-4.788zm30.449 2.484h-7.308v-2.7h-4.752v2.7h-7.38v3.384h19.44V3.388zm-13.392 9.144c0-1.224 1.44-1.836 3.708-1.836 2.232 0 3.636.612 3.636 1.836 0 1.188-1.404 1.872-3.636 1.872-2.268 0-3.708-.684-3.708-1.872zm13.716 5.76c-2.448.288-5.04.504-7.632.648v-1.584c3.528-.54 5.796-2.304 5.796-4.824 0-3.024-3.312-4.932-8.172-4.932-4.932 0-8.244 1.908-8.244 4.932 0 2.52 2.268 4.284 5.868 4.824v1.764c-2.988.072-5.796.072-8.316.072l.612 3.564c5.796 0 13.392-.108 20.412-1.296l-.324-3.168zm-16.164 10.08h18.108v5.76h4.788V24.7h-22.896v3.672zM188.955.976v22.428h4.788V.976h-4.788zm9.821 33.984h3.708c.252 0 .432-.108.504-.396L211.34 4.54c.072-.324-.072-.54-.396-.54h-3.708c-.252 0-.432.108-.504.396L198.38 34.42c-.072.324.072.54.396.54zM236.281.904v33.264h4.752V.904h-4.752zm-21.096 2.664v22.86h16.344V3.568h-4.716v8.028h-6.912V3.568h-4.716zm4.716 11.736h6.912v7.344h-6.912v-7.344zm29.405 6.192c5.76-1.044 9.9-3.96 11.988-7.884 2.088 3.852 6.3 6.696 12.132 7.704l1.8-3.744c-7.488-1.116-11.412-5.508-11.448-10.08h9.972V3.748h-24.984v3.744h9.972c-.036 4.572-3.96 9.072-11.268 10.224l1.836 3.78zm-3.024 4.788v3.852h30.024v-3.852h-30.024zm39.162-22.212h-4.716v21.852h2.952c5.04 0 10.548-.36 16.2-1.548l-.504-3.96c-4.86.972-9.576 1.332-13.932 1.44V4.072zM301.932.904V34.06h4.752V.904h-4.752zm38.765 15.66c-7.488-1.296-11.592-6.444-11.592-11.304V2.884h-5.076V5.26c0 4.752-4.14 10.008-11.592 11.304l2.016 3.96c5.76-1.116 9.972-4.356 12.096-8.568 2.124 4.212 6.372 7.416 12.132 8.568l2.016-3.96zm-28.98 9.648v3.852h30.024v-3.852h-30.024zm60.891-10.044c-5.256-1.728-7.704-5.616-7.776-9.504h6.552V2.92h-18.036v3.744h6.66c-.072 4.104-2.52 8.316-7.92 10.044l2.412 3.708c3.852-1.26 6.516-3.852 7.992-7.092 1.512 2.952 4.032 5.328 7.704 6.48l2.412-3.636zm-15.696 10.008h17.784v7.956h4.788V22.396h-22.572v3.78zM374.696.94v19.98h4.788V.94h-4.788zm18.209 21.888h-4.752V33.52h23.508v-3.78h-18.756v-6.912zm17.604-7.92c.684-3.816.684-6.84.684-9.54V2.452h-22.824v3.816h18.144c0 2.52-.072 5.184-.756 8.64h-21.096v3.816h12.888v7.02h4.752v-7.02h12.384v-3.816h-4.176zm24.676-4.536h5.256V6.52h-5.256v-4.5h-4.5v4.5h-5.292v3.852h5.292v.54c0 5.112-1.692 10.548-6.408 13.284l2.664 3.564c2.988-1.692 4.932-4.608 6.048-8.064 1.188 3.132 3.096 5.76 6.048 7.308l2.52-3.528c-4.68-2.484-6.372-7.56-6.372-12.564v-.54zM449.081.904v12.708h-2.7V1.444h-4.428v31.14h4.428V17.5h2.7v16.56h4.5V.904h-4.5zm23.429 29.628c-4.428 0-6.696-.756-6.696-2.448s2.268-2.412 6.696-2.412 6.696.72 6.696 2.412-2.268 2.448-6.696 2.448zm0-8.46c-7.164 0-11.484 2.16-11.484 6.012 0 3.852 4.32 6.048 11.484 6.048s11.52-2.196 11.52-6.048-4.356-6.012-11.52-6.012zm-3.42-8.172c1.08.144 2.232.216 3.492.216a33.3 33.3 0 0 0 3.42-.18v2.736h-6.912V13.9zm3.492-8.856c4.536 0 7.128.9 7.128 2.772 0 1.8-2.592 2.736-7.128 2.736-4.5 0-7.092-.936-7.092-2.736 0-1.872 2.592-2.772 7.092-2.772zm8.172 11.628v-3.96c2.448-1.08 3.852-2.736 3.852-4.896 0-3.96-4.68-6.372-12.024-6.372-7.308 0-11.988 2.412-11.988 6.372 0 2.124 1.368 3.78 3.744 4.86v3.996h-6.732v3.744h29.952v-3.744h-6.804zm42.531-2.664c.936-3.42.936-6.228.936-8.856V2.416h-22.968V6.16h18.216c0 2.196-.108 4.428-.864 7.38l4.68.468zm-10.656 16.524c-4.464 0-7.02-.9-7.02-2.664 0-1.8 2.556-2.7 7.02-2.7 4.5 0 7.056.9 7.056 2.7 0 1.764-2.556 2.664-7.056 2.664zm0-8.928c-7.128 0-11.736 2.376-11.736 6.264 0 3.852 4.608 6.228 11.736 6.228 7.164 0 11.772-2.376 11.772-6.228 0-3.888-4.608-6.264-11.772-6.264zm1.08-5.832V9.976h-4.752v5.796h-11.052v3.744h29.844v-3.744h-14.04zm42.653 7.056c1.332-7.056 1.332-11.736 1.332-15.876V3.784H533.61v3.78h19.332c0 3.852-.072 8.46-1.332 14.724l4.752.54zm-10.44 3.456V14.872h-4.752v11.412h-10.584V30.1h29.988v-3.816h-14.652z" fill="#000"/></svg><svg width="800" height="93" viewBox="-4 -4 800 93" fill="none" id="text_careers_title" y="45" xmlns="http://www.w3.org/2000/svg"><path d="M3.348 28h3.744c.288 0 .468-.18.468-.468V9.388l11.844 18.288c.144.216.324.324.576.324h4.104c.288 0 .468-.18.468-.468V2.044c0-.288-.18-.468-.468-.468H20.34c-.288 0-.468.18-.468.468v18.108L8.064 1.9c-.144-.216-.324-.324-.576-.324h-4.14c-.288 0-.468.18-.468.468v25.488c0 .288.18.468.468.468zm24.826 0h4.464c.252 0 .432-.108.54-.36l1.872-4.932h10.98l1.872 4.932c.108.252.288.36.54.36h4.536c.324 0 .504-.216.36-.54L42.79 1.936c-.108-.252-.288-.36-.54-.36h-3.348c-.252 0-.432.108-.54.36L27.814 27.46c-.144.324.036.54.36.54zm8.568-9.792L40.522 8.2l3.78 10.008h-7.56zM61.805 28h3.348c.252 0 .432-.108.54-.36L76.025 2.116c.144-.324-.036-.54-.36-.54h-4.464c-.252 0-.468.108-.54.36l-7.128 19.332L56.37 1.936c-.072-.252-.288-.36-.54-.36h-4.536c-.324 0-.504.216-.36.54L61.265 27.64c.108.252.288.36.54.36zm17.968 0h17.136c.288 0 .468-.18.468-.468v-3.636c0-.288-.18-.468-.468-.468H84.165V16.66h11.124c.288 0 .468-.18.468-.468v-3.564c0-.288-.18-.468-.468-.468H84.165V6.148h12.312c.288 0 .468-.18.468-.468V2.044c0-.288-.18-.468-.468-.468H79.773c-.288 0-.468.18-.468.468v25.488c0 .288.18.468.468.468zm21.924 0h3.924c.288 0 .468-.18.468-.468v-7.524h3.6c.72 0 1.368-.036 2.016-.108l4.248 7.776c.108.216.288.324.54.324h4.428c.36 0 .504-.252.324-.576l-4.932-9c2.628-1.656 3.852-4.392 3.852-7.632 0-5.976-3.168-9.216-10.476-9.216h-7.992c-.288 0-.468.18-.468.468v25.488c0 .288.18.468.468.468zm7.812-21.924c3.816 0 5.616 1.404 5.616 4.716 0 3.312-1.8 4.716-5.616 4.716h-3.42V6.076h3.42zm35.253 22.428c6.444 0 10.548-3.456 11.952-8.424.072-.216-.036-.396-.324-.468l-3.816-1.08c-.288-.072-.468.036-.576.324-1.188 3.312-3.708 4.896-7.092 4.896-5.004 0-7.992-3.528-7.992-8.964 0-5.4 2.952-8.964 7.992-8.964 2.988 0 5.256 1.332 6.516 3.744.108.252.324.36.576.288l3.852-1.08c.288-.072.396-.324.288-.612-1.764-4.5-5.76-7.092-11.304-7.092-7.56 0-12.96 5.4-12.96 13.716 0 8.316 5.148 13.716 12.888 13.716zM161.493 28h17.136c.288 0 .468-.18.468-.468v-3.708c0-.288-.18-.468-.468-.468h-12.744V2.044c0-.288-.18-.468-.468-.468h-3.924c-.288 0-.468.18-.468.468v25.488c0 .288.18.468.468.468zm31.838.504c7.704 0 13.32-5.436 13.32-13.716s-5.616-13.716-13.32-13.716c-7.704 0-13.32 5.436-13.32 13.716s5.616 13.716 13.32 13.716zm0-4.752c-5.076 0-8.28-3.744-8.28-8.964 0-5.22 3.204-8.964 8.28-8.964 5.076 0 8.28 3.744 8.28 8.964 0 5.22-3.204 8.964-8.28 8.964zM218.474 28h3.348c.252 0 .432-.108.54-.36l10.332-25.524c.144-.324-.036-.54-.36-.54h-4.464c-.252 0-.468.108-.54.36l-7.128 19.332-7.164-19.332c-.072-.252-.288-.36-.54-.36h-4.536c-.324 0-.504.216-.36.54l10.332 25.524c.108.252.288.36.54.36zm12.186 0h4.464c.252 0 .432-.108.54-.36l1.872-4.932h10.98l1.872 4.932c.108.252.288.36.54.36h4.536c.324 0 .504-.216.36-.54L245.276 1.936c-.108-.252-.288-.36-.54-.36h-3.348c-.252 0-.432.108-.54.36L230.3 27.46c-.144.324.036.54.36.54zm8.568-9.792l3.78-10.008 3.78 10.008h-7.56zm39.831 10.296c7.704 0 13.32-5.436 13.32-13.716s-5.616-13.716-13.32-13.716c-7.704 0-13.32 5.436-13.32 13.716s5.616 13.716 13.32 13.716zm0-4.752c-5.076 0-8.28-3.744-8.28-8.964 0-5.22 3.204-8.964 8.28-8.964 5.076 0 8.28 3.744 8.28 8.964 0 5.22-3.204 8.964-8.28 8.964zm17.837 12.096h3.744c.288 0 .468-.18.468-.468v-9.648c1.368 1.656 3.42 2.628 5.868 2.628 5.328 0 8.712-3.96 8.712-9.684 0-5.724-3.384-9.684-8.712-9.684-2.592 0-4.752 1.08-6.084 2.916l-.108-2.088c0-.324-.216-.468-.504-.468h-3.384c-.288 0-.468.18-.468.468v25.56c0 .288.18.468.468.468zm8.928-11.736c-2.988 0-5.04-2.232-5.04-5.436 0-3.204 2.052-5.436 5.04-5.436s5.04 2.232 5.04 5.436c0 3.204-2.052 5.436-5.04 5.436zm21.618 4.248c3.456 0 6.552-1.476 8.208-4.752.144-.288.036-.504-.252-.612l-3.204-1.116c-.252-.072-.468-.036-.612.216-.864 1.404-2.196 2.124-4.104 2.124-2.484 0-4.068-1.548-4.5-4.104h12.78c.288 0 .468-.144.504-.468.18-6.408-3.096-10.656-8.82-10.656-5.868 0-9.432 4.032-9.432 9.684 0 5.652 3.564 9.684 9.432 9.684zm-.036-15.228c2.016 0 3.42 1.296 3.852 3.492h-8.208c.576-2.232 2.16-3.492 4.356-3.492zM339.795 28h3.744c.288 0 .468-.18.468-.468v-9.036c0-3.564 2.16-5.256 4.428-5.256 2.448 0 3.564 1.44 3.564 4.536v9.756c0 .288.18.468.468.468h3.744c.288 0 .468-.18.468-.468V15.868c0-4.284-2.484-6.876-6.804-6.876-2.376 0-4.716.972-6.084 2.952l-.108-2.124c0-.324-.216-.468-.504-.468h-3.384c-.288 0-.468.18-.468.468v17.712c0 .288.18.468.468.468zm29.655 0h3.924c.288 0 .468-.18.468-.468v-7.524h3.6c6.948 0 10.476-3.384 10.476-9.216 0-5.832-3.528-9.216-10.476-9.216h-7.992c-.288 0-.468.18-.468.468v25.488c0 .288.18.468.468.468zm7.812-21.924c3.6 0 5.616 1.476 5.616 4.608 0 3.348-2.016 4.824-5.616 4.824h-3.42V6.076h3.42zm22.383 22.284c5.976 0 9.864-4.032 9.864-9.684 0-5.652-3.888-9.684-9.864-9.684-5.976 0-9.864 4.032-9.864 9.684 0 5.652 3.888 9.684 9.864 9.684zm0-4.248c-2.988 0-5.04-2.232-5.04-5.436 0-3.204 2.052-5.436 5.04-5.436s5.04 2.232 5.04 5.436c0 3.204-2.052 5.436-5.04 5.436zm19.977 4.248c4.284 0 7.38-2.196 7.38-5.616 0-3.096-1.548-5.04-6.12-6.192l-.864-.216c-2.052-.504-2.88-1.008-2.88-1.872 0-.972.972-1.332 2.196-1.332 1.584 0 2.556.756 3.204 1.908.144.252.324.36.612.252l3.276-1.044c.288-.072.396-.288.288-.576-1.152-3.168-3.708-4.68-7.308-4.68-4.212 0-7.092 2.304-7.092 5.472 0 2.88 1.728 5.076 6.192 6.336l.9.252c1.98.576 2.772 1.008 2.772 1.8 0 1.044-1.152 1.368-2.736 1.368-1.584 0-2.88-.504-3.744-2.016-.108-.252-.324-.36-.576-.288l-3.276.9c-.288.072-.432.288-.324.576 1.188 3.24 4.032 4.968 8.1 4.968zm12.857-22.32c1.548 0 2.736-1.044 2.736-2.592S434.027.856 432.479.856c-1.548 0-2.736 1.044-2.736 2.592s1.188 2.592 2.736 2.592zM430.607 28h3.744c.288 0 .468-.18.468-.468V9.82c0-.288-.18-.468-.468-.468h-3.744c-.288 0-.468.18-.468.468v17.712c0 .288.18.468.468.468zm15.967.36c2.124 0 4.176-.9 5.508-3.348.216-.36.144-.612-.144-.756l-2.808-1.26c-.288-.144-.504-.036-.648.216-.36.648-.792.9-1.404.9-1.44 0-2.088-1.008-2.088-3.024v-7.56h4.428c.288 0 .468-.18.468-.468V9.82c0-.288-.18-.468-.468-.468h-4.428V4.348c0-.288-.18-.468-.468-.468h-3.744c-.288 0-.468.18-.468.468v5.004h-2.736c-.288 0-.468.18-.468.468v3.24c0 .288.18.468.468.468h2.736V20.8c0 5.04 2.232 7.56 6.264 7.56zM456.64 6.04c1.548 0 2.736-1.044 2.736-2.592S458.188.856 456.64.856c-1.548 0-2.736 1.044-2.736 2.592s1.188 2.592 2.736 2.592zM454.768 28h3.744c.288 0 .468-.18.468-.468V9.82c0-.288-.18-.468-.468-.468h-3.744c-.288 0-.468.18-.468.468v17.712c0 .288.18.468.468.468zm17.479.36c5.976 0 9.864-4.032 9.864-9.684 0-5.652-3.888-9.684-9.864-9.684-5.976 0-9.864 4.032-9.864 9.684 0 5.652 3.888 9.684 9.864 9.684zm0-4.248c-2.988 0-5.04-2.232-5.04-5.436 0-3.204 2.052-5.436 5.04-5.436s5.04 2.232 5.04 5.436c0 3.204-2.052 5.436-5.04 5.436zM485.996 28h3.744c.288 0 .468-.18.468-.468v-9.036c0-3.564 2.16-5.256 4.428-5.256 2.448 0 3.564 1.44 3.564 4.536v9.756c0 .288.18.468.468.468h3.744c.288 0 .468-.18.468-.468V15.868c0-4.284-2.484-6.876-6.804-6.876-2.376 0-4.716.972-6.084 2.952l-.108-2.124c0-.324-.216-.468-.504-.468h-3.384c-.288 0-.468.18-.468.468v17.712c0 .288.18.468.468.468zm27.941.36c4.284 0 7.38-2.196 7.38-5.616 0-3.096-1.548-5.04-6.12-6.192l-.864-.216c-2.052-.504-2.88-1.008-2.88-1.872 0-.972.972-1.332 2.196-1.332 1.584 0 2.556.756 3.204 1.908.144.252.324.36.612.252l3.276-1.044c.288-.072.396-.288.288-.576-1.152-3.168-3.708-4.68-7.308-4.68-4.212 0-7.092 2.304-7.092 5.472 0 2.88 1.728 5.076 6.192 6.336l.9.252c1.98.576 2.772 1.008 2.772 1.8 0 1.044-1.152 1.368-2.736 1.368-1.584 0-2.88-.504-3.744-2.016-.108-.252-.324-.36-.576-.288l-3.276.9c-.288.072-.432.288-.324.576 1.188 3.24 4.032 4.968 8.1 4.968zm20.439-13.392c1.656 0 2.916-1.188 2.916-2.844s-1.26-2.844-2.916-2.844-2.916 1.188-2.916 2.844 1.26 2.844 2.916 2.844zm0 13.392c1.656 0 2.916-1.188 2.916-2.844s-1.26-2.844-2.916-2.844-2.916 1.188-2.916 2.844 1.26 2.844 2.916 2.844zm13.106-.36h4.464c.252 0 .432-.108.54-.36l1.872-4.932h10.98l1.872 4.932c.108.252.288.36.54.36h4.536c.324 0 .504-.216.36-.54L562.098 1.936c-.108-.252-.288-.36-.54-.36h-3.348c-.252 0-.432.108-.54.36L547.122 27.46c-.144.324.036.54.36.54zm8.568-9.792L559.83 8.2l3.78 10.008h-7.56zM576.383 28h3.924c.288 0 .468-.18.468-.468V2.044c0-.288-.18-.468-.468-.468h-3.924c-.288 0-.468.18-.468.468v25.488c0 .288.18.468.468.468zm17.728 0h3.924c.288 0 .468-.18.468-.468v-7.524h3.6c.72 0 1.368-.036 2.016-.108l4.248 7.776c.108.216.288.324.54.324h4.428c.36 0 .504-.252.324-.576l-4.932-9c2.628-1.656 3.852-4.392 3.852-7.632 0-5.976-3.168-9.216-10.476-9.216h-7.992c-.288 0-.468.18-.468.468v25.488c0 .288.18.468.468.468zm7.812-21.924c3.816 0 5.616 1.404 5.616 4.716 0 3.312-1.8 4.716-5.616 4.716h-3.42V6.076h3.42zm23.286 22.284c3.456 0 6.552-1.476 8.208-4.752.144-.288.036-.504-.252-.612l-3.204-1.116c-.252-.072-.468-.036-.612.216-.864 1.404-2.196 2.124-4.104 2.124-2.484 0-4.068-1.548-4.5-4.104h12.78c.288 0 .468-.144.504-.468.18-6.408-3.096-10.656-8.82-10.656-5.868 0-9.432 4.032-9.432 9.684 0 5.652 3.564 9.684 9.432 9.684zm-.036-15.228c2.016 0 3.42 1.296 3.852 3.492h-8.208c.576-2.232 2.16-3.492 4.356-3.492zM643.79 28.36c4.284 0 7.38-2.196 7.38-5.616 0-3.096-1.548-5.04-6.12-6.192l-.864-.216c-2.052-.504-2.88-1.008-2.88-1.872 0-.972.972-1.332 2.196-1.332 1.584 0 2.556.756 3.204 1.908.144.252.324.36.612.252l3.276-1.044c.288-.072.396-.288.288-.576-1.152-3.168-3.708-4.68-7.308-4.68-4.212 0-7.092 2.304-7.092 5.472 0 2.88 1.728 5.076 6.192 6.336l.9.252c1.98.576 2.772 1.008 2.772 1.8 0 1.044-1.152 1.368-2.736 1.368-1.584 0-2.88-.504-3.744-2.016-.108-.252-.324-.36-.576-.288l-3.276.9c-.288.072-.432.288-.324.576 1.188 3.24 4.032 4.968 8.1 4.968zm18.869 0c3.456 0 6.552-1.476 8.208-4.752.144-.288.036-.504-.252-.612l-3.204-1.116c-.252-.072-.468-.036-.612.216-.864 1.404-2.196 2.124-4.104 2.124-2.484 0-4.068-1.548-4.5-4.104h12.78c.288 0 .468-.144.504-.468.18-6.408-3.096-10.656-8.82-10.656-5.868 0-9.432 4.032-9.432 9.684 0 5.652 3.564 9.684 9.432 9.684zm-.036-15.228c2.016 0 3.42 1.296 3.852 3.492h-8.208c.576-2.232 2.16-3.492 4.356-3.492zm19.553 15.228c2.592 0 4.752-1.08 6.084-2.916l.108 2.088c0 .324.216.468.504.468h3.384c.288 0 .468-.18.468-.468V9.82c0-.288-.18-.468-.468-.468h-3.384c-.288 0-.504.144-.504.468l-.108 2.088c-1.332-1.836-3.492-2.916-6.084-2.916-5.328 0-8.712 3.96-8.712 9.684 0 5.724 3.384 9.684 8.712 9.684zm1.152-4.248c-2.988 0-5.04-2.232-5.04-5.436 0-3.204 2.052-5.436 5.04-5.436s5.04 2.232 5.04 5.436c0 3.204-2.052 5.436-5.04 5.436zM697.675 28h3.744c.288 0 .468-.18.468-.468v-9.18c0-2.952 2.376-4.68 4.896-4.68.72 0 1.26.108 1.728.144.324.036.504-.072.504-.396V9.712c0-.252-.108-.432-.396-.504a6.072 6.072 0 0 0-1.26-.108c-2.232 0-4.428 1.044-5.688 3.06l-.108-2.34c0-.324-.216-.468-.504-.468h-3.384c-.288 0-.468.18-.468.468v17.712c0 .288.18.468.468.468zm22.253.36c4.104 0 7.272-1.764 8.748-5.616.108-.288 0-.504-.288-.576l-3.42-.828c-.252-.072-.468.036-.612.288-.792 1.656-2.232 2.484-4.176 2.484-3.384 0-5.004-2.484-5.004-5.436s1.62-5.436 5.004-5.436c1.944 0 3.312.792 4.14 2.376.144.252.36.36.612.288l3.096-.9c.288-.072.432-.324.324-.612-1.368-3.672-4.284-5.4-8.46-5.4-5.832 0-9.54 3.96-9.54 9.684 0 5.724 3.672 9.684 9.576 9.684zm12.384-.36h3.744c.288 0 .468-.18.468-.468v-9.036c0-3.564 2.16-5.256 4.428-5.256 2.448 0 3.564 1.44 3.564 4.536v9.756c0 .288.18.468.468.468h3.744c.288 0 .468-.18.468-.468V15.868c0-4.284-2.484-6.876-6.804-6.876-2.268 0-4.464.864-5.868 2.664V1.468c0-.288-.18-.468-.468-.468h-3.744c-.288 0-.468.18-.468.468v26.064c0 .288.18.468.468.468zm29.597.36c3.456 0 6.552-1.476 8.208-4.752.144-.288.036-.504-.252-.612l-3.204-1.116c-.252-.072-.468-.036-.612.216-.864 1.404-2.196 2.124-4.104 2.124-2.484 0-4.068-1.548-4.5-4.104h12.78c.288 0 .468-.144.504-.468.18-6.408-3.096-10.656-8.82-10.656-5.868 0-9.432 4.032-9.432 9.684 0 5.652 3.564 9.684 9.432 9.684zm-.036-15.228c2.016 0 3.42 1.296 3.852 3.492h-8.208c.576-2.232 2.16-3.492 4.356-3.492zM774.262 28h3.744c.288 0 .468-.18.468-.468v-9.18c0-2.952 2.376-4.68 4.896-4.68.72 0 1.26.108 1.728.144.324.036.504-.072.504-.396V9.712c0-.252-.108-.432-.396-.504a6.072 6.072 0 0 0-1.26-.108c-2.232 0-4.428 1.044-5.688 3.06l-.108-2.34c0-.324-.216-.468-.504-.468h-3.384c-.288 0-.468.18-.468.468v17.712c0 .288.18.468.468.468zm11.109 5.832h2.232c.252 0 .432-.144.54-.36l1.44-3.204c1.224-2.736 1.584-3.708 1.584-4.752 0-1.656-1.26-2.844-2.916-2.844s-2.916 1.188-2.916 2.844c0 1.116.54 1.98 1.404 2.484l-1.764 5.292c-.108.324.072.54.396.54zM1.152 76h4.464c.252 0 .432-.108.54-.36l1.872-4.932h10.98l1.872 4.932c.108.252.288.36.54.36h4.536c.324 0 .504-.216.36-.54L15.768 49.936c-.108-.252-.288-.36-.54-.36H11.88c-.252 0-.432.108-.54.36L.792 75.46c-.144.324.036.54.36.54zm8.568-9.792L13.5 56.2l3.78 10.008H9.72zM30.054 76h3.924c.288 0 .468-.18.468-.468V50.044c0-.288-.18-.468-.468-.468h-3.925c-.288 0-.468.18-.468.468v25.488c0 .288.18.468.468.468zm17.727 0h8.784c8.784 0 13.356-4.932 13.356-13.212 0-8.316-4.572-13.212-13.356-13.212H47.78c-.288 0-.468.18-.468.468v25.488c0 .288.18.468.468.468zm8.244-21.852c5.868 0 8.856 3.096 8.856 8.64 0 5.544-2.988 8.64-8.856 8.64h-3.852v-17.28h3.852zm26.3 22.212c3.456 0 6.552-1.476 8.208-4.752.144-.288.036-.504-.252-.612l-3.204-1.116c-.252-.072-.468-.036-.612.216-.864 1.404-2.196 2.124-4.104 2.124-2.484 0-4.068-1.548-4.5-4.104h12.78c.288 0 .468-.144.504-.468.18-6.408-3.096-10.656-8.82-10.656-5.868 0-9.432 4.032-9.432 9.684 0 5.652 3.564 9.684 9.432 9.684zm-.036-15.228c2.016 0 3.42 1.296 3.852 3.492h-8.208c.576-2.232 2.16-3.492 4.356-3.492zM100.136 76h2.376c.252 0 .432-.144.54-.36l7.956-17.748c.144-.324 0-.54-.36-.54h-4.176c-.252 0-.432.108-.54.36l-4.464 11.34-4.464-11.34c-.108-.252-.288-.36-.54-.36H92c-.36 0-.504.216-.36.54l7.956 17.748c.108.216.288.36.54.36zm21.151.36c3.456 0 6.552-1.476 8.208-4.752.144-.288.036-.504-.252-.612l-3.204-1.116c-.252-.072-.468-.036-.612.216-.864 1.404-2.196 2.124-4.104 2.124-2.484 0-4.068-1.548-4.5-4.104h12.78c.288 0 .468-.144.504-.468.18-6.408-3.096-10.656-8.82-10.656-5.868 0-9.432 4.032-9.432 9.684 0 5.652 3.564 9.684 9.432 9.684zm-.036-15.228c2.016 0 3.42 1.296 3.852 3.492h-8.208c.576-2.232 2.16-3.492 4.356-3.492zM133.639 76h3.744c.288 0 .468-.18.468-.468V49.468c0-.288-.18-.468-.468-.468h-3.744c-.288 0-.468.18-.468.468v26.064c0 .288.18.468.468.468zm17.479.36c5.976 0 9.864-4.032 9.864-9.684 0-5.652-3.888-9.684-9.864-9.684-5.976 0-9.864 4.032-9.864 9.684 0 5.652 3.888 9.684 9.864 9.684zm0-4.248c-2.988 0-5.04-2.232-5.04-5.436 0-3.204 2.052-5.436 5.04-5.436s5.04 2.232 5.04 5.436c0 3.204-2.052 5.436-5.04 5.436zm13.749 11.736h3.744c.288 0 .468-.18.468-.468v-9.648c1.368 1.656 3.42 2.628 5.868 2.628 5.328 0 8.712-3.96 8.712-9.684 0-5.724-3.384-9.684-8.712-9.684-2.592 0-4.752 1.08-6.084 2.916l-.108-2.088c0-.324-.216-.468-.504-.468h-3.384c-.288 0-.468.18-.468.468v25.56c0 .288.18.468.468.468zm8.928-11.736c-2.988 0-5.04-2.232-5.04-5.436 0-3.204 2.052-5.436 5.04-5.436s5.04 2.232 5.04 5.436c0 3.204-2.052 5.436-5.04 5.436zm21.618 4.248c3.456 0 6.552-1.476 8.208-4.752.144-.288.036-.504-.252-.612l-3.204-1.116c-.252-.072-.468-.036-.612.216-.864 1.404-2.196 2.124-4.104 2.124-2.484 0-4.068-1.548-4.5-4.104h12.78c.288 0 .468-.144.504-.468.18-6.408-3.096-10.656-8.82-10.656-5.868 0-9.432 4.032-9.432 9.684 0 5.652 3.564 9.684 9.432 9.684zm-.036-15.228c2.016 0 3.42 1.296 3.852 3.492h-8.208c.576-2.232 2.16-3.492 4.356-3.492zM207.766 76h3.744c.288 0 .468-.18.468-.468v-9.18c0-2.952 2.376-4.68 4.896-4.68.72 0 1.26.108 1.728.144.324.036.504-.072.504-.396v-3.708c0-.252-.108-.432-.396-.504a6.072 6.072 0 0 0-1.26-.108c-2.232 0-4.428 1.044-5.688 3.06l-.108-2.34c0-.324-.216-.468-.504-.468h-3.384c-.288 0-.468.18-.468.468v17.712c0 .288.18.468.468.468zm32.167 5.364c.288.036.468-.144.468-.432V77.44c0-.288-.144-.468-.432-.504-4.392-.468-6.264-4.284-6.264-12.456s1.872-11.988 6.264-12.456c.288-.036.432-.216.432-.504v-3.492c0-.288-.18-.468-.468-.432-7.668.468-11.196 6.408-11.196 16.884 0 10.476 3.528 16.416 11.196 16.884zM243.269 76h3.744c.288 0 .468-.18.468-.468v-9.18c0-2.952 2.376-4.68 4.896-4.68.72 0 1.26.108 1.728.144.324.036.504-.072.504-.396v-3.708c0-.252-.108-.432-.396-.504a6.072 6.072 0 0 0-1.26-.108c-2.232 0-4.428 1.044-5.688 3.06l-.108-2.34c0-.324-.216-.468-.504-.468h-3.384c-.288 0-.468.18-.468.468v17.712c0 .288.18.468.468.468zm22.109.36c3.456 0 6.552-1.476 8.208-4.752.144-.288.036-.504-.252-.612l-3.204-1.116c-.252-.072-.468-.036-.612.216-.864 1.404-2.196 2.124-4.104 2.124-2.484 0-4.068-1.548-4.5-4.104h12.78c.288 0 .468-.144.504-.468.18-6.408-3.096-10.656-8.82-10.656-5.868 0-9.432 4.032-9.432 9.684 0 5.652 3.564 9.684 9.432 9.684zm-.036-15.228c2.016 0 3.42 1.296 3.852 3.492h-8.208c.576-2.232 2.16-3.492 4.356-3.492zm20.237 23.076c5.868 0 9.864-3.312 9.864-9.252V57.82c0-.288-.18-.468-.468-.468h-3.384c-.288 0-.504.144-.504.468l-.108 2.088c-1.332-1.836-3.492-2.916-6.084-2.916-5.328 0-8.712 3.96-8.712 9.684 0 5.724 3.384 9.684 8.712 9.684 2.448 0 4.5-.972 5.868-2.628v1.692c0 3.312-2.448 4.536-5.328 4.536-2.52 0-3.96-1.008-4.86-2.556-.144-.252-.36-.36-.612-.252l-3.024 1.116c-.288.108-.396.288-.252.576 1.44 3.564 4.896 5.364 8.892 5.364zm.468-12.096c-2.988 0-5.04-2.232-5.04-5.436 0-3.204 2.052-5.436 5.04-5.436s5.04 2.232 5.04 5.436c0 3.204-2.052 5.436-5.04 5.436zm20.538 4.248c2.376 0 4.716-.972 6.084-2.952l.108 2.124c0 .324.216.468.504.468h3.384c.288 0 .468-.18.468-.468V57.82c0-.288-.18-.468-.468-.468h-3.744c-.288 0-.468.18-.468.468v9.036c0 3.564-2.16 5.256-4.428 5.256-2.448 0-3.564-1.44-3.564-4.536V57.82c0-.288-.18-.468-.468-.468h-3.744c-.288 0-.468.18-.468.468v11.664c0 4.284 2.484 6.876 6.804 6.876zm15.522-.36h3.744c.288 0 .468-.18.468-.468V49.468c0-.288-.18-.468-.468-.468h-3.744c-.288 0-.468.18-.468.468v26.064c0 .288.18.468.468.468zm16.326.36c2.592 0 4.752-1.08 6.084-2.916l.108 2.088c0 .324.216.468.504.468h3.384c.288 0 .468-.18.468-.468V57.82c0-.288-.18-.468-.468-.468h-3.384c-.288 0-.504.144-.504.468l-.108 2.088c-1.332-1.836-3.492-2.916-6.084-2.916-5.328 0-8.712 3.96-8.712 9.684 0 5.724 3.384 9.684 8.712 9.684zm1.152-4.248c-2.988 0-5.04-2.232-5.04-5.436 0-3.204 2.052-5.436 5.04-5.436s5.04 2.232 5.04 5.436c0 3.204-2.052 5.436-5.04 5.436zM353.932 76h3.744c.288 0 .468-.18.468-.468v-9.18c0-2.952 2.376-4.68 4.896-4.68.72 0 1.26.108 1.728.144.324.036.504-.072.504-.396v-3.708c0-.252-.108-.432-.396-.504a6.072 6.072 0 0 0-1.26-.108c-2.232 0-4.428 1.044-5.688 3.06l-.108-2.34c0-.324-.216-.468-.504-.468h-3.384c-.288 0-.468.18-.468.468v17.712c0 .288.18.468.468.468zm31.662.504c6.84 0 10.62-3.42 10.62-8.136 0-1.548-.54-2.952-1.332-3.996h2.7c.288 0 .468-.18.468-.468V60.7c0-.288-.18-.468-.468-.468h-8.352c-.288 0-.468.18-.468.468v3.204c0 .288.036.468.252.468h.252c1.404 0 2.232 1.908 2.232 3.384 0 2.736-1.728 4.5-5.904 4.5-3.708 0-5.508-1.8-5.508-4.212 0-2.232 1.548-3.672 4.356-3.672h1.188c.288 0 .468-.18.468-.468V60.7c0-.288-.18-.468-.468-.468h-1.332c-2.232 0-3.42-1.44-3.42-3.276 0-2.124 1.692-3.636 4.032-3.636 2.124 0 3.636 1.188 4.284 3.204.108.288.288.396.576.324l3.852-.792c.288-.072.432-.288.36-.576-1.08-3.924-4.464-6.408-9.072-6.408-5.22 0-9.072 3.024-9.072 7.128 0 2.592 1.296 4.788 4.068 5.904-3.204.972-4.86 3.312-4.86 6.516 0 4.5 3.924 7.884 10.548 7.884zm25.387-22.464c1.548 0 2.736-1.044 2.736-2.592s-1.188-2.592-2.736-2.592c-1.548 0-2.736 1.044-2.736 2.592s1.188 2.592 2.736 2.592zM409.109 76h3.744c.288 0 .468-.18.468-.468V57.82c0-.288-.18-.468-.468-.468h-3.744c-.288 0-.468.18-.468.468v17.712c0 .288.18.468.468.468zm9.162 0h3.744c.288 0 .468-.18.468-.468v-9.036c0-3.564 2.16-5.256 4.428-5.256 2.448 0 3.564 1.44 3.564 4.536v9.756c0 .288.18.468.468.468h3.744c.288 0 .468-.18.468-.468V63.868c0-4.284-2.484-6.876-6.804-6.876-2.376 0-4.716.972-6.084 2.952l-.108-2.124c0-.324-.216-.468-.504-.468h-3.384c-.288 0-.468.18-.468.468v17.712c0 .288.18.468.468.468zm28.518.36c2.124 0 4.176-.9 5.508-3.348.216-.36.144-.612-.144-.756l-2.808-1.26c-.288-.144-.504-.036-.648.216-.36.648-.792.9-1.404.9-1.44 0-2.088-1.008-2.088-3.024v-7.56h4.428c.288 0 .468-.18.468-.468v-3.24c0-.288-.18-.468-.468-.468h-4.428v-5.004c0-.288-.18-.468-.468-.468h-3.744c-.288 0-.468.18-.468.468v5.004h-2.736c-.288 0-.468.18-.468.468v3.24c0 .288.18.468.468.468h2.736V68.8c0 5.04 2.232 7.56 6.264 7.56zm15.727 0c3.456 0 6.552-1.476 8.208-4.752.144-.288.036-.504-.252-.612l-3.204-1.116c-.252-.072-.468-.036-.612.216-.864 1.404-2.196 2.124-4.104 2.124-2.484 0-4.068-1.548-4.5-4.104h12.78c.288 0 .468-.144.504-.468.18-6.408-3.096-10.656-8.82-10.656-5.868 0-9.432 4.032-9.432 9.684 0 5.652 3.564 9.684 9.432 9.684zm-.036-15.228c2.016 0 3.42 1.296 3.852 3.492h-8.208c.576-2.232 2.16-3.492 4.356-3.492zM474.868 76h3.744c.288 0 .468-.18.468-.468v-9.18c0-2.952 2.376-4.68 4.896-4.68.72 0 1.26.108 1.728.144.324.036.504-.072.504-.396v-3.708c0-.252-.108-.432-.396-.504a6.072 6.072 0 0 0-1.26-.108c-2.232 0-4.428 1.044-5.688 3.06l-.108-2.34c0-.324-.216-.468-.504-.468h-3.384c-.288 0-.468.18-.468.468v17.712c0 .288.18.468.468.468zm14.577 0h3.744c.288 0 .468-.18.468-.468v-9.036c0-3.564 2.16-5.256 4.428-5.256 2.448 0 3.564 1.44 3.564 4.536v9.756c0 .288.18.468.468.468h3.744c.288 0 .468-.18.468-.468V63.868c0-4.284-2.484-6.876-6.804-6.876-2.376 0-4.716.972-6.084 2.952l-.108-2.124c0-.324-.216-.468-.504-.468h-3.384c-.288 0-.468.18-.468.468v17.712c0 .288.18.468.468.468zm19.634 5.364c7.668-.468 11.196-6.408 11.196-16.884 0-10.476-3.528-16.416-11.196-16.884-.288-.036-.468.144-.468.432v3.492c0 .288.144.468.432.504 4.392.468 6.264 4.284 6.264 12.456s-1.872 11.988-6.264 12.456c-.288.036-.432.216-.432.504v3.492c0 .288.18.468.468.432z" fill="#000"/></svg><svg width="818" height="45" viewBox="-4 -4 818 45" fill="none" id="text_careers_title_kr" xmlns="http://www.w3.org/2000/svg"><path d="M1.348 31h3.744c.288 0 .468-.18.468-.468V12.388l11.844 18.288c.144.216.324.324.576.324h4.104c.288 0 .468-.18.468-.468V5.044c0-.288-.18-.468-.468-.468H18.34c-.288 0-.468.18-.468.468v18.108L6.064 4.9c-.144-.216-.324-.324-.576-.324h-4.14c-.288 0-.468.18-.468.468v25.488c0 .288.18.468.468.468zm24.826 0h4.464c.252 0 .432-.108.54-.36l1.872-4.932h10.98l1.872 4.932c.108.252.288.36.54.36h4.536c.324 0 .504-.216.36-.54L40.79 4.936c-.108-.252-.288-.36-.54-.36h-3.348c-.252 0-.432.108-.54.36L25.814 30.46c-.144.324.036.54.36.54zm8.568-9.792l3.78-10.008 3.78 10.008h-7.56zM59.805 31h3.348c.252 0 .432-.108.54-.36L74.025 5.116c.144-.324-.036-.54-.36-.54h-4.464c-.252 0-.468.108-.54.36l-7.128 19.332L54.37 4.936c-.072-.252-.288-.36-.54-.36h-4.536c-.324 0-.504.216-.36.54L59.265 30.64c.108.252.288.36.54.36zm17.968 0h17.136c.288 0 .468-.18.468-.468v-3.636c0-.288-.18-.468-.468-.468H82.165V19.66h11.124c.288 0 .468-.18.468-.468v-3.564c0-.288-.18-.468-.468-.468H82.165V9.148h12.312c.288 0 .468-.18.468-.468V5.044c0-.288-.18-.468-.468-.468H77.773c-.288 0-.468.18-.468.468v25.488c0 .288.18.468.468.468zm21.924 0h3.924c.288 0 .468-.18.468-.468v-7.524h3.6c.72 0 1.368-.036 2.016-.108l4.248 7.776c.108.216.288.324.54.324h4.428c.36 0 .504-.252.324-.576l-4.932-9c2.628-1.656 3.852-4.392 3.852-7.632 0-5.976-3.168-9.216-10.476-9.216h-7.992c-.288 0-.468.18-.468.468v25.488c0 .288.18.468.468.468zm7.812-21.924c3.816 0 5.616 1.404 5.616 4.716 0 3.312-1.8 4.716-5.616 4.716h-3.42V9.076h3.42zm35.253 22.428c6.444 0 10.548-3.456 11.952-8.424.072-.216-.036-.396-.324-.468l-3.816-1.08c-.288-.072-.468.036-.576.324-1.188 3.312-3.708 4.896-7.092 4.896-5.004 0-7.992-3.528-7.992-8.964 0-5.4 2.952-8.964 7.992-8.964 2.988 0 5.256 1.332 6.516 3.744.108.252.324.36.576.288l3.852-1.08c.288-.072.396-.324.288-.612-1.764-4.5-5.76-7.092-11.304-7.092-7.56 0-12.96 5.4-12.96 13.716 0 8.316 5.148 13.716 12.888 13.716zM159.493 31h17.136c.288 0 .468-.18.468-.468v-3.708c0-.288-.18-.468-.468-.468h-12.744V5.044c0-.288-.18-.468-.468-.468h-3.924c-.288 0-.468.18-.468.468v25.488c0 .288.18.468.468.468zm31.838.504c7.704 0 13.32-5.436 13.32-13.716s-5.616-13.716-13.32-13.716c-7.704 0-13.32 5.436-13.32 13.716s5.616 13.716 13.32 13.716zm0-4.752c-5.076 0-8.28-3.744-8.28-8.964 0-5.22 3.204-8.964 8.28-8.964 5.076 0 8.28 3.744 8.28 8.964 0 5.22-3.204 8.964-8.28 8.964zM216.474 31h3.348c.252 0 .432-.108.54-.36l10.332-25.524c.144-.324-.036-.54-.36-.54h-4.464c-.252 0-.468.108-.54.36l-7.128 19.332-7.164-19.332c-.072-.252-.288-.36-.54-.36h-4.536c-.324 0-.504.216-.36.54l10.332 25.524c.108.252.288.36.54.36zm12.186 0h4.464c.252 0 .432-.108.54-.36l1.872-4.932h10.98l1.872 4.932c.108.252.288.36.54.36h4.536c.324 0 .504-.216.36-.54L243.276 4.936c-.108-.252-.288-.36-.54-.36h-3.348c-.252 0-.432.108-.54.36L228.3 30.46c-.144.324.036.54.36.54zm8.568-9.792l3.78-10.008 3.78 10.008h-7.56zM262.875 31h4.464c.252 0 .432-.108.54-.36l1.872-4.932h10.98l1.872 4.932c.108.252.288.36.54.36h4.536c.324 0 .504-.216.36-.54L277.491 4.936c-.108-.252-.288-.36-.54-.36h-3.348c-.252 0-.432.108-.54.36L262.515 30.46c-.144.324.036.54.36.54zm8.568-9.792l3.78-10.008 3.78 10.008h-7.56zM291.777 31h3.924c.288 0 .468-.18.468-.468V5.044c0-.288-.18-.468-.468-.468h-3.924c-.288 0-.468.18-.468.468v25.488c0 .288.18.468.468.468zm20.859-19.512c0-2.736 1.8-4.428 4.212-4.428 2.448 0 4.248 1.692 4.248 4.428 0 2.772-1.8 4.464-4.248 4.464-2.412 0-4.212-1.692-4.212-4.464zm18.036-2.16v4.284h-5.328c.18-.648.252-1.404.252-2.124 0-.756-.108-1.476-.252-2.16h5.328zm0 8.064v7.812h4.752V.94h-4.752v4.608h-7.38c-1.62-1.656-3.852-2.628-6.444-2.628-4.896 0-8.712 3.636-8.712 8.568 0 4.968 3.816 8.604 8.712 8.604 2.592 0 4.896-1.008 6.516-2.7h7.308zM318.324 29.74v-6.912h-4.752V33.52h22.608v-3.78h-17.856zm52.085-12.78h-4.356c.828-4.644.828-8.028.828-11.124V2.848h-23.004v3.816h18.36c0 2.844-.072 6.084-.9 10.296h-20.88v3.816h12.384v13.32h4.824v-13.32h12.744V16.96zm2.658 18h3.708c.252 0 .432-.108.504-.396l8.352-30.024c.072-.324-.072-.54-.396-.54h-3.708c-.252 0-.432.108-.504.396l-8.352 30.024c-.072.324.072.54.396.54zm16.049-29.916v3.78h8.388c-.612 6.516-3.42 11.304-10.08 15.192l2.772 3.312c9.252-5.4 11.988-12.996 11.988-22.284h-13.068zM411.724.94v12.492h-2.952V1.804h-4.428v30.888h4.428V17.248h2.952v16.848h4.536V.94h-4.536zm21.017 12.276h-6.516V9.904h6.516v3.312zm4.68-10.836h-4.68v3.96h-6.516V2.38h-4.68v14.544h15.876V2.38zm-7.884 25.704h17.136v-9h-21.888v3.6h17.208V24.7h-17.172v9.144h22.788v-3.672h-18.072v-2.088zm17.136-20.736V.94h-4.752v16.848h4.752V11.2h4.356V7.348h-4.356zm33.675 8.28c-5.22-1.62-7.452-5.508-7.452-9.504V2.74h-4.824v2.988c0 4.5-2.232 8.928-7.776 10.764l2.484 3.744c3.78-1.296 6.336-3.852 7.776-7.128 1.404 2.808 3.816 5.04 7.308 6.192l2.484-3.672zm-4.284 14.796c-4.248 0-6.516-.864-6.516-2.736 0-1.836 2.268-2.7 6.516-2.7 4.212 0 6.48.864 6.48 2.7 0 1.872-2.268 2.736-6.48 2.736zm0-9.108c-6.912 0-11.232 2.376-11.232 6.372 0 4.032 4.32 6.408 11.232 6.408 6.876 0 11.196-2.376 11.196-6.408 0-3.996-4.32-6.372-11.196-6.372zM486.9 8.644V.976h-4.752V20.56h4.752v-7.992h4.392V8.644H486.9zm19.47-5.148h-4.752V8.32c0 6.444-2.736 12.852-8.532 15.336l2.844 3.924c3.96-1.872 6.66-5.436 8.136-9.864 1.476 4.068 4.032 7.344 7.848 9.072l2.7-3.852c-5.616-2.412-8.244-8.46-8.244-14.616V3.496zm9.864-2.592v33.264h4.752V.904h-4.752zm27.807 9.468h5.256V6.52h-5.256v-4.5h-4.5v4.5h-5.292v3.852h5.292v.54c0 5.112-1.692 10.548-6.408 13.284l2.664 3.564c2.988-1.692 4.932-4.608 6.048-8.064 1.188 3.132 3.096 5.76 6.048 7.308l2.52-3.528c-4.68-2.484-6.372-7.56-6.372-12.564v-.54zM557.937.904v12.708h-2.7V1.444h-4.428v31.14h4.428V17.5h2.7v16.56h4.5V.904h-4.5zm23.429 29.628c-4.428 0-6.696-.756-6.696-2.448s2.268-2.412 6.696-2.412 6.696.72 6.696 2.412-2.268 2.448-6.696 2.448zm0-8.46c-7.164 0-11.484 2.16-11.484 6.012 0 3.852 4.32 6.048 11.484 6.048s11.52-2.196 11.52-6.048-4.356-6.012-11.52-6.012zm-3.42-8.172c1.08.144 2.232.216 3.492.216a33.3 33.3 0 0 0 3.42-.18v2.736h-6.912V13.9zm3.492-8.856c4.536 0 7.128.9 7.128 2.772 0 1.8-2.592 2.736-7.128 2.736-4.5 0-7.092-.936-7.092-2.736 0-1.872 2.592-2.772 7.092-2.772zm8.172 11.628v-3.96c2.448-1.08 3.852-2.736 3.852-4.896 0-3.96-4.68-6.372-12.024-6.372-7.308 0-11.988 2.412-11.988 6.372 0 2.124 1.368 3.78 3.744 4.86v3.996h-6.732v3.744h29.952v-3.744h-6.804zm12.449-1.98c6.264-.54 10.332-2.88 12.096-6.012 1.764 3.132 5.832 5.472 12.06 6.012l1.656-3.672c-6.192-.54-9.432-2.7-10.26-4.932h8.82v-3.78h-24.516v3.78h8.784c-.828 2.232-4.068 4.392-10.224 4.932l1.584 3.672zm18.72 13.428c0 1.656-2.268 2.376-6.696 2.376s-6.696-.72-6.696-2.376c0-1.692 2.268-2.412 6.696-2.412s6.696.72 6.696 2.412zm8.352-8.352v-3.78h-29.952v3.78h12.6v2.412c-5.76.468-9.18 2.52-9.18 5.94 0 3.816 4.32 6.012 11.484 6.012s11.52-2.196 11.52-6.012c0-3.384-3.384-5.436-9.072-5.904v-2.448h12.6zm21.724 16.596c.288.036.468-.144.468-.432V32.44c0-.288-.144-.468-.432-.504-4.392-.468-6.264-4.284-6.264-12.456s1.872-11.988 6.264-12.456c.288-.036.432-.216.432-.504V3.028c0-.288-.18-.468-.468-.432-7.668.468-11.196 6.408-11.196 16.884 0 10.476 3.528 16.416 11.196 16.884zm20.32-27.432v3.852h4.968v7.884h4.752V.94h-4.752v7.992h-4.968zm1.98 7.128c-5.04-1.656-7.344-5.544-7.488-9.324h6.444V2.92h-17.82v3.816h6.516c-.144 4.14-2.556 8.352-7.812 10.188l2.412 3.744c3.852-1.296 6.48-3.996 7.92-7.344 1.44 2.916 3.924 5.256 7.524 6.444l2.304-3.708zm-3.456 14.472c-4.356 0-6.624-.9-6.624-2.772 0-1.872 2.268-2.772 6.624-2.772 4.32 0 6.588.9 6.588 2.772 0 1.872-2.268 2.772-6.588 2.772zm0-9.144c-7.056 0-11.376 2.34-11.376 6.372s4.32 6.372 11.376 6.372c7.02 0 11.34-2.34 11.34-6.372s-4.32-6.372-11.34-6.372zm46.181-4.392h-4.752c.936-5.436.936-9.288.936-12.096V2.776H689.42v3.852h17.928c-.036 2.592-.18 5.94-1.008 10.368h-20.412v3.852h6.696v13.32h4.716v-13.32h6.768v13.32h4.716v-13.32h7.056v-3.852zm2.657 17.964h3.708c.252 0 .432-.108.504-.396l8.352-30.024c.072-.324-.072-.54-.396-.54h-3.708c-.252 0-.432.108-.504.396l-8.352 30.024c-.072.324.072.54.396.54zM760.866.976h-4.788v23.796h4.788V.976zm-22.428 10.512c0-2.736 1.944-4.32 4.392-4.32 2.484 0 4.356 1.584 4.356 4.32 0 2.664-1.872 4.284-4.356 4.284-2.448 0-4.392-1.62-4.392-4.284zm13.392 0c0-4.896-3.924-8.424-9-8.424-5.076 0-9.036 3.528-9.036 8.424 0 4.824 3.96 8.388 9.036 8.388s9-3.564 9-8.388zm-8.28 18.252v-7.308h-4.752V33.52h22.896v-3.78H743.55zm45.461-4.356h4.752V.94h-4.752v9h-5.472v3.78h5.472v11.664zm-5.256-9c-3.564.612-6.732.756-11.448.792v-3.204h9.288V10.3h-9.288V7.24h10.368V3.46h-15.12v14.148h.036v3.384h2.592c6.12 0 9.792-.108 13.968-.828l-.396-3.78zm-7.092 13.356v-6.372h-4.752V33.52h22.608v-3.78h-17.856zm21.738 6.624c7.668-.468 11.196-6.408 11.196-16.884 0-10.476-3.528-16.416-11.196-16.884-.288-.036-.468.144-.468.432V6.52c0 .288.144.468.432.504 4.392.468 6.264 4.284 6.264 12.456s-1.872 11.988-6.264 12.456c-.288.036-.432.216-.432.504v3.492c0 .288.18.468.468.432z" fill="#000"/></svg><svg width="428" height="45" viewBox="-4 -4 428 45" fill="none" id="text_ceb_logo" y="262" xmlns="http://www.w3.org/2000/svg"><path d="M152.931 24.695v3.39H136.75V1.154h15.988v3.383H140.35v8.272h11.421v3.348H140.35v8.537h12.581zM173.297 16.276v11.808h-3.369v-11.62c0-3.156-1.821-4.924-4.818-4.924-3.096 0-5.611 1.81-5.611 6.347v10.197h-3.353V8.846h3.37v2.77c1.429-2.269 3.558-3.268 6.269-3.268 4.528 0 7.512 3 7.512 7.928zM196.813 8.846v18.427c0 6-4.837 9-9.87 9-4.335 0-7.589-1.654-9.175-4.692l2.941-1.653c.89 1.806 2.518 3.23 6.311 3.23 4.025 0 6.466-2.27 6.466-5.885V24.54a8.368 8.368 0 0 1-3.129 2.881 8.431 8.431 0 0 1-4.149.98c-5.499 0-9.886-4.439-9.886-10.055 0-5.617 4.375-9.999 9.873-9.999 3.25 0 5.73 1.462 7.278 3.807V8.846h3.34zm-3.327 9.5a6.828 6.828 0 0 0-2.07-4.746 6.916 6.916 0 0 0-4.821-1.954 6.916 6.916 0 0 0-4.821 1.954 6.813 6.813 0 0 0-.105 9.685 6.93 6.93 0 0 0 9.852 0 6.834 6.834 0 0 0 1.965-4.938zM200.57 3.115c0-.597.239-1.17.663-1.591a2.274 2.274 0 0 1 3.203 0c.424.422.663.994.663 1.59 0 .598-.239 1.17-.663 1.592a2.273 2.273 0 0 1-3.203 0 2.245 2.245 0 0 1-.663-1.591zm.582 5.744h3.365v19.226h-3.365V8.859zM226.043 16.276v11.808h-3.369v-11.62c0-3.156-1.818-4.924-4.798-4.924-3.096 0-5.614 1.81-5.614 6.347v10.197h-3.369V8.846h3.369v2.77c1.432-2.269 3.561-3.268 6.272-3.268 4.529 0 7.509 3 7.509 7.928zM239.321 25.425c2.672 0 4.606-1.229 5.576-2.808l2.861 1.618c-1.702 2.613-4.644 4.346-8.514 4.346-6.234 0-10.377-4.346-10.377-10.116 0-5.694 4.105-10.117 10.143-10.117 5.845 0 9.635 4.768 9.635 10.155 0 .502-.039 1.004-.116 1.5h-16.216c.659 3.463 3.424 5.422 7.008 5.422zm-7.008-8.345h12.931c-.582-3.81-3.331-5.591-6.234-5.591-3.639 0-6.164 2.233-6.697 5.59zM261.291 25.425c2.672 0 4.608-1.229 5.575-2.808l2.865 1.618c-1.702 2.613-4.644 4.346-8.517 4.346-6.231 0-10.374-4.346-10.374-10.116 0-5.694 4.104-10.117 10.142-10.117 5.846 0 9.635 4.768 9.635 10.155 0 .502-.038 1.004-.115 1.5h-16.219c.661 3.463 3.411 5.422 7.008 5.422zm-7.005-8.345h12.927c-.578-3.81-3.327-5.591-6.231-5.591-3.638 0-6.156 2.233-6.696 5.59zM283.128 8.501v3.511c-2.891-.115-6.038 1.347-6.038 5.885v10.187h-3.369V8.846h3.369v3.233c1.236-2.693 3.613-3.578 6.038-3.578zM285.488 3.115a2.238 2.238 0 0 1 1.398-2.079 2.277 2.277 0 0 1 2.468.488 2.238 2.238 0 0 1 .663 1.59c0 .598-.239 1.17-.663 1.592a2.274 2.274 0 0 1-3.203 0 2.245 2.245 0 0 1-.663-1.591zm.582 5.744h3.365v19.226h-3.365V8.859zM310.535 16.276v11.808h-3.369v-11.62c0-3.156-1.818-4.924-4.798-4.924-3.099 0-5.614 1.81-5.614 6.347v10.197h-3.369V8.846h3.375v2.77c1.433-2.269 3.562-3.268 6.273-3.268 4.522 0 7.502 3 7.502 7.928zM334.055 8.846v18.427c0 6-4.84 9-9.873 9-4.335 0-7.589-1.654-9.175-4.692l2.951-1.653c.89 1.806 2.518 3.23 6.311 3.23 4.028 0 6.465-2.27 6.465-5.885V24.54a8.365 8.365 0 0 1-3.132 2.884 8.432 8.432 0 0 1-4.155.978c-5.489 0-9.873-4.44-9.873-10.056 0-5.617 4.384-9.999 9.873-9.999 3.25 0 5.73 1.462 7.278 3.807V8.846h3.33zm-3.33 9.5a6.828 6.828 0 0 0-2.07-4.746 6.916 6.916 0 0 0-4.821-1.954 6.916 6.916 0 0 0-4.821 1.954 6.828 6.828 0 0 0-2.07 4.747 6.832 6.832 0 0 0 1.965 4.938 6.93 6.93 0 0 0 9.852 0 6.813 6.813 0 0 0 1.965-4.938zM366.983 20.465c0 4.308-3.485 7.614-7.859 7.614h-11.69V1.155h10.839c4.22 0 7.586 3.191 7.586 7.34a6.675 6.675 0 0 1-.761 3.175 6.726 6.726 0 0 1-2.181 2.441 6.88 6.88 0 0 1 2.99 2.572 6.813 6.813 0 0 1 1.076 3.782zM351.04 4.499v8.234h7.239a4.077 4.077 0 0 0 2.878-1.223 4.02 4.02 0 0 0 1.143-2.894 4.022 4.022 0 0 0-1.152-2.89 4.088 4.088 0 0 0-2.875-1.227h-7.233zm12.388 15.848a4.274 4.274 0 0 0-2.637-4.012A4.326 4.326 0 0 0 359.13 16h-8.09v8.732h8.09a4.337 4.337 0 0 0 3.072-1.299 4.282 4.282 0 0 0 1.219-3.086h.007zM370.119 0h3.366v28.084h-3.366V0zM376.778 18.465a10.083 10.083 0 0 1 1.711-5.638 10.183 10.183 0 0 1 4.577-3.742 10.258 10.258 0 0 1 5.897-.58c1.981.39 3.8 1.355 5.228 2.774a10.113 10.113 0 0 1 2.792 5.194c.393 1.968.19 4.008-.585 5.86a10.15 10.15 0 0 1-3.765 4.549 10.246 10.246 0 0 1-5.674 1.7c-1.34.011-2.67-.243-3.91-.747a10.108 10.108 0 0 1-3.315-2.19 10.029 10.029 0 0 1-2.205-3.295 9.977 9.977 0 0 1-.751-3.885zm17.022 0a6.776 6.776 0 0 0-1.948-4.897 6.865 6.865 0 0 0-9.77 0 6.785 6.785 0 0 0-1.948 4.897 6.74 6.74 0 0 0 .477 2.644c.334.84.835 1.607 1.471 2.253a6.831 6.831 0 0 0 2.235 1.51 6.876 6.876 0 0 0 5.299 0 6.802 6.802 0 0 0 3.707-3.764c.334-.84.496-1.739.477-2.643zM420 8.846v18.427c0 6-4.84 9-9.873 9-4.335 0-7.589-1.654-9.175-4.692l2.941-1.653c.893 1.806 2.518 3.23 6.311 3.23 4.028 0 6.466-2.27 6.466-5.885V24.54a8.368 8.368 0 0 1-3.129 2.881 8.431 8.431 0 0 1-4.149.98c-5.499 0-9.857-4.439-9.857-10.055 0-5.617 4.374-9.999 9.873-9.999 3.25 0 5.73 1.462 7.278 3.807V8.846H420zm-3.33 9.5a6.828 6.828 0 0 0-2.07-4.746 6.916 6.916 0 0 0-4.821-1.954 6.916 6.916 0 0 0-4.821 1.954 6.813 6.813 0 0 0-.105 9.685 6.93 6.93 0 0 0 9.852 0 6.834 6.834 0 0 0 1.965-4.938zM95.931 1.174L89.28 18.401 82.632 1.174H75.96l10.39 26.91h5.858l10.39-26.91h-6.668zM35.043 1.174h-6.22v26.91h16.735v-6.185H35.043V1.174zM115.691 1.174h-5.851l-10.397 26.91h6.668l1.712-4.733h9.876l1.715 4.733h6.667l-10.39-26.91zm-6.002 16.618l3.073-8.77 3.071 8.77h-6.144zM71.62 4.723a14.406 14.406 0 0 0-5.01-3.373 14.483 14.483 0 0 0-11.824.466 14.385 14.385 0 0 0-4.726 3.756 14.256 14.256 0 0 0-3.244 10.473 14.29 14.29 0 0 0 5.159 9.686 14.472 14.472 0 0 0 10.54 3.224 14.438 14.438 0 0 0 9.748-5.126l.115-.15a14.228 14.228 0 0 0 3.256-9.052c0-3.3-1.15-6.499-3.255-9.052-.264-.319-.511-.6-.758-.852zm-4.175 14.948l-.073.09a5.19 5.19 0 0 1-.213.251 8.126 8.126 0 0 1-4.19 2.466 8.165 8.165 0 0 1-4.855-.361 8.105 8.105 0 0 1-3.774-3.057 8.026 8.026 0 0 1 .253-9.228 8.113 8.113 0 0 1 3.936-2.848 8.165 8.165 0 0 1 4.868-.098 8.12 8.12 0 0 1 4.048 2.688 7.878 7.878 0 0 1 1.828 5.042c0 1.84-.646 3.624-1.828 5.042v.013zM25.562 23.7l-4.937-4.015-.067.08-.116.14-.1.108a8.04 8.04 0 0 1-4.098 2.4 8.077 8.077 0 0 1-4.746-.328 8.02 8.02 0 0 1-3.727-2.938 7.943 7.943 0 0 1-1.399-4.518 7.943 7.943 0 0 1 1.396-4.508 8.02 8.02 0 0 1 3.715-2.936 8.077 8.077 0 0 1 4.734-.34 8.04 8.04 0 0 1 4.405 2.73l4.94-4.015-.113-.134A14.422 14.422 0 0 0 18.14.799c-2.856-.76-5.879-.63-8.658.376a14.4 14.4 0 0 0-6.875 5.242 14.254 14.254 0 0 0-.002 16.427 14.396 14.396 0 0 0 6.877 5.243 14.494 14.494 0 0 0 8.66.374 14.419 14.419 0 0 0 7.308-4.63l.112-.132z" fill="#fff"/></svg><svg width="527" height="36" viewBox="-4 -4 527 36" fill="none" id="text_tech_title" y="226" xmlns="http://www.w3.org/2000/svg"><path d="M12.904 27.504c6.444 0 10.548-3.456 11.952-8.424.072-.216-.036-.396-.324-.468l-3.816-1.08c-.288-.072-.468.036-.576.324-1.188 3.312-3.708 4.896-7.092 4.896-5.004 0-7.992-3.528-7.992-8.964 0-5.4 2.952-8.964 7.992-8.964 2.988 0 5.256 1.332 6.516 3.744.108.252.324.36.576.288l3.852-1.08c.288-.072.396-.324.288-.612-1.764-4.5-5.76-7.092-11.304-7.092-7.56 0-12.96 5.4-12.96 13.716 0 8.316 5.148 13.716 12.888 13.716zM29.636 27h17.136c.288 0 .468-.18.468-.468v-3.708c0-.288-.18-.468-.468-.468H34.028V1.044c0-.288-.18-.468-.468-.468h-3.925c-.288 0-.468.18-.468.468v25.488c0 .288.18.468.468.468zm31.838.504c7.703 0 13.32-5.436 13.32-13.716S69.176.072 61.473.072c-7.704 0-13.32 5.436-13.32 13.716s5.615 13.716 13.32 13.716zm0-4.752c-5.076 0-8.28-3.744-8.28-8.964 0-5.22 3.203-8.964 8.28-8.964 5.075 0 8.28 3.744 8.28 8.964 0 5.22-3.205 8.964-8.28 8.964zM86.615 27h3.348c.252 0 .432-.108.54-.36l10.332-25.524c.144-.324-.036-.54-.36-.54h-4.464c-.252 0-.468.108-.54.36l-7.128 19.332L81.18.936c-.072-.252-.288-.36-.54-.36h-4.536c-.324 0-.504.216-.36.54L86.076 26.64c.108.252.288.36.54.36zm12.186 0h4.464c.252 0 .432-.108.54-.36l1.872-4.932h10.98l1.872 4.932c.108.252.288.36.54.36h4.536c.324 0 .504-.216.36-.54L113.418.936c-.108-.252-.288-.36-.54-.36h-3.348c-.252 0-.432.108-.54.36L98.442 26.46c-.144.324.036.54.36.54zm8.568-9.792L111.15 7.2l3.78 10.008h-7.56zm36.988 10.296c6.84 0 10.62-3.42 10.62-8.136 0-1.548-.54-2.952-1.332-3.996h2.7c.288 0 .468-.18.468-.468V11.7c0-.288-.18-.468-.468-.468h-8.352c-.288 0-.468.18-.468.468v3.204c0 .288.036.468.252.468h.252c1.404 0 2.232 1.908 2.232 3.384 0 2.736-1.728 4.5-5.904 4.5-3.708 0-5.508-1.8-5.508-4.212 0-2.232 1.548-3.672 4.356-3.672h1.188c.288 0 .468-.18.468-.468V11.7c0-.288-.18-.468-.468-.468h-1.332c-2.232 0-3.42-1.44-3.42-3.276 0-2.124 1.692-3.636 4.032-3.636 2.124 0 3.636 1.188 4.284 3.204.108.288.288.396.576.324l3.852-.792c.288-.072.432-.288.36-.576-1.08-3.924-4.464-6.408-9.072-6.408-5.22 0-9.072 3.024-9.072 7.128 0 2.592 1.296 4.788 4.068 5.904-3.204.972-4.86 3.312-4.86 6.516 0 4.5 3.924 7.884 10.548 7.884zm21.75-.504h4.464c.252 0 .432-.108.54-.36l1.872-4.932h10.98l1.872 4.932c.108.252.288.36.54.36h4.536c.324 0 .504-.216.36-.54L180.724.936c-.108-.252-.288-.36-.54-.36h-3.348c-.252 0-.432.108-.54.36L165.748 26.46c-.144.324.036.54.36.54zm8.568-9.792l3.78-10.008 3.78 10.008h-7.56zM195.01 27h3.924c.288 0 .468-.18.468-.468V1.044c0-.288-.18-.468-.468-.468h-3.924c-.288 0-.468.18-.468.468v25.488c0 .288.18.468.468.468zm17.727 0h17.136c.288 0 .468-.18.468-.468v-3.708c0-.288-.18-.468-.468-.468h-12.744V1.044c0-.288-.18-.468-.468-.468h-3.924c-.288 0-.468.18-.468.468v25.488c0 .288.18.468.468.468zm19.447 0h4.464c.252 0 .432-.108.54-.36l1.872-4.932h10.98l1.872 4.932c.108.252.288.36.54.36h4.536c.324 0 .504-.216.36-.54L246.8.936c-.108-.252-.288-.36-.54-.36h-3.348c-.252 0-.432.108-.54.36L231.824 26.46c-.144.324.036.54.36.54zm8.568-9.792l3.78-10.008 3.78 10.008h-7.56zM261.085 27h9.432c7.128 0 10.152-2.916 10.152-7.56 0-3.024-1.656-5.4-4.968-6.3 2.376-.972 3.636-3.168 3.636-5.76 0-3.924-2.844-6.804-9.18-6.804h-9.072c-.288 0-.468.18-.468.468v25.488c0 .288.18.468.468.468zm8.892-21.888c2.772 0 4.392 1.08 4.392 3.06 0 2.016-1.62 3.06-4.392 3.06h-4.5v-6.12h4.5zm.684 10.512c3.24 0 4.968 1.188 4.968 3.384 0 2.232-1.728 3.456-4.968 3.456h-5.184v-6.84h5.184zM299.679 27h3.924c.288 0 .468-.18.468-.468V5.148h8.136c.288 0 .468-.18.468-.468V1.044c0-.288-.18-.468-.468-.468h-21.168c-.288 0-.432.18-.432.468V4.68c0 .288.144.468.432.468h8.172v21.384c0 .288.18.468.468.468zm17.019 0h17.136c.288 0 .468-.18.468-.468v-3.636c0-.288-.18-.468-.468-.468H321.09V15.66h11.124c.288 0 .468-.18.468-.468v-3.564c0-.288-.18-.468-.468-.468H321.09V5.148h12.312c.288 0 .468-.18.468-.468V1.044c0-.288-.18-.468-.468-.468h-16.704c-.288 0-.468.18-.468.468v25.488c0 .288.18.468.468.468zm33.48.504c6.444 0 10.548-3.456 11.952-8.424.072-.216-.036-.396-.324-.468l-3.816-1.08c-.288-.072-.468.036-.576.324-1.188 3.312-3.708 4.896-7.092 4.896-5.004 0-7.992-3.528-7.992-8.964 0-5.4 2.952-8.964 7.992-8.964 2.988 0 5.256 1.332 6.516 3.744.108.252.324.36.576.288l3.852-1.08c.288-.072.396-.324.288-.612-1.764-4.5-5.76-7.092-11.304-7.092-7.56 0-12.96 5.4-12.96 13.716 0 8.316 5.148 13.716 12.888 13.716zM366.91 27h3.924c.288 0 .468-.18.468-.468v-10.8h12.24v10.8c0 .288.18.468.468.468h3.924c.288 0 .468-.18.468-.468V1.044c0-.288-.18-.468-.468-.468h-3.924c-.288 0-.468.18-.468.468V11.16h-12.24V1.044c0-.288-.18-.468-.468-.468h-3.924c-.288 0-.468.18-.468.468v25.488c0 .288.18.468.468.468zm42.409.504c5.508 0 9.324-3.168 9.324-7.56 0-4.356-2.304-6.624-7.092-8.208l-1.872-.612c-3.096-1.044-4.464-2.124-4.464-3.78 0-1.548 1.512-2.52 3.816-2.52 1.98 0 3.348.792 4.212 2.952.108.288.288.396.576.324l3.96-1.008c.288-.072.432-.288.324-.576-1.332-4.392-4.644-6.444-9.072-6.444-5.004 0-8.856 3.096-8.856 7.416 0 3.78 2.556 6.264 6.768 7.704l2.34.828c2.7.972 4.32 2.016 4.32 3.924 0 1.98-1.728 2.808-4.284 2.808-2.7 0-4.212-1.08-5.148-3.384-.108-.288-.288-.396-.576-.324l-3.744.9c-.288.072-.432.288-.324.576 1.404 4.572 4.86 6.984 9.792 6.984zM429.256 27h3.924c.288 0 .468-.18.468-.468V5.148h8.136c.288 0 .468-.18.468-.468V1.044c0-.288-.18-.468-.468-.468h-21.168c-.288 0-.432.18-.432.468V4.68c0 .288.144.468.432.468h8.172v21.384c0 .288.18.468.468.468zm27.565.504c7.704 0 13.32-5.436 13.32-13.716S464.525.072 456.821.072c-7.704 0-13.32 5.436-13.32 13.716s5.616 13.716 13.32 13.716zm0-4.752c-5.076 0-8.28-3.744-8.28-8.964 0-5.22 3.204-8.964 8.28-8.964 5.076 0 8.28 3.744 8.28 8.964 0 5.22-3.204 8.964-8.28 8.964zM475.089 27h3.924c.288 0 .468-.18.468-.468v-7.524h3.6c.72 0 1.368-.036 2.016-.108l4.248 7.776c.108.216.288.324.54.324h4.428c.36 0 .504-.252.324-.576l-4.932-9c2.628-1.656 3.852-4.392 3.852-7.632 0-5.976-3.168-9.216-10.476-9.216h-7.992c-.288 0-.468.18-.468.468v25.488c0 .288.18.468.468.468zm7.812-21.924c3.816 0 5.616 1.404 5.616 4.716 0 3.312-1.8 4.716-5.616 4.716h-3.42V5.076h3.42zM504.783 27h3.924c.288 0 .468-.18.468-.468V16.92l9.576-15.768c.18-.324.036-.576-.324-.576h-4.464c-.252 0-.432.108-.54.324l-6.624 11.664L500.139.9c-.108-.216-.288-.324-.54-.324h-4.536c-.36 0-.504.252-.324.576l9.576 15.804v9.576c0 .288.18.468.468.468z" fill="#000"/></svg></svg>