<svg xmlns="http://www.w3.org/2000/svg" viewBox="0 0 226.27 48.31">
  <switch>
    <g>
      <linearGradient id="a" gradientUnits="userSpaceOnUse" x1="66.038" y1="67.628" x2="120.076" y2="67.628" gradientTransform="rotate(8.001 311.68 -426.389)">
        <stop offset=".069" stop-color="#ffd226"/>
        <stop offset=".443" stop-color="#ffcf01"/>
        <stop offset=".813" stop-color="#fdb81c"/>
        <stop offset=".976" stop-color="#faa61f"/>
      </linearGradient>
      <path d="M5.16 23.95c1.45-2.41 3.72-4.02 6.34-4.42 2.94-.46 6.36.95 8.66 3.49 4.55-2.73 10.11-3.53 14.53-3.92 1.42-.12 2.88-.11 4.28-.1.82.01 1.66.02 2.47 0 4.14-.1 4.57.74 4.83 1.25.28.56.21 1.23-.2 1.75-2.01 2.58-3.55 5.61-5.03 8.54-.36.71-.72 1.43-1.1 2.15.17.13.34.26.51.38 1.15.87 2.24 1.7 3.42 2.38 1.63.94 3.4 1.6 5.27 2.3.79.29 1.6.6 2.4.92.65.26 1.07.91 1.04 1.61-.03.7-.49 1.32-1.16 1.53l-4.5 1.44c-3.02.96-6.14 1.96-9.19 2.97-3.27 1.09-7.61 2.28-12.28 1.8-.26-.03-.52-.06-.78-.1-4.15-.58-7.81-2.37-10.64-5.19-1.71-1.71-2.96-3.71-4.17-5.65-.62-1-1.21-1.94-1.86-2.85-1.92-2.69-4.41-4.95-7.19-6.53-.63-.35-.94-1.06-.77-1.76.16-.69.75-1.19 1.46-1.23l3.66-.76zm-.95 2.7c1.94 1.51 4.64 3.91 6.09 5.94.7.98 1.34 2.01 1.96 3 1.17 1.88 2.28 3.66 3.77 5.14 2.54 2.53 5.89 4.08 9.71 4.47 4.13.42 8.1-.67 11.09-1.67 3.07-1.02 6.2-2.02 9.23-2.99.45-.14.91-.29 1.36-.43-1.67-.63-3.38-1.3-4.98-2.23-1.33-.77-2.54-1.69-3.71-2.57-.05-.04-.1-.08-.15-.11-1.77 3.17-4 6.26-8.14 7.04-2.43.46-5.02-.05-7.1-1.37-1.47-.94-2.56-2.19-3.13-3.61-.69-1.71-.6-3.58.24-5.26.96-1.91 2.79-3.38 4.91-3.94 3.11-.82 6.81-.08 10.99 2.22.43.24.84.49 1.25.75.31-.59.61-1.19.9-1.78 1.26-2.49 2.56-5.05 4.18-7.43-.38-.01-.79-.02-1.18-.01-.86.02-1.72.01-2.57.01-1.4-.01-2.72-.03-4.01.09-4.39.38-9.96 1.19-14.12 4.04-.72.49-1.68.33-2.2-.37-1.41-1.92-4.16-3.65-6.68-3.26-1.94.3-4.63 1.81-5.48 3.63l-2.23.7zm25.05 4.01c-1.15-.16-2.21-.12-3.17.14-1.32.35-2.51 1.3-3.1 2.47-.33.67-.63 1.72-.14 2.93.35.86 1.07 1.67 2.03 2.28a7.11 7.11 0 0 0 5.07.98c3.06-.57 4.82-3.13 6.35-5.93-.43-.27-.86-.53-1.3-.77-2.11-1.16-4.03-1.86-5.74-2.1zm-10.04-7.04z" fill="url(#a)"/>
      <linearGradient id="b" gradientUnits="userSpaceOnUse" x1="6.514" y1="19.091" x2="9.208" y2="19.091" gradientTransform="rotate(-1.146 330.915 -128.063)">
        <stop offset=".069" stop-color="#ffd226"/>
        <stop offset=".443" stop-color="#ffcf01"/>
        <stop offset=".813" stop-color="#fdb81c"/>
        <stop offset=".976" stop-color="#faa61f"/>
      </linearGradient>
      <circle cx="11.02" cy="25.85" r="1.35" fill="url(#b)"/>
      <linearGradient id="c" gradientUnits="userSpaceOnUse" x1="-15.664" y1="4.962" x2="31.847" y2="4.962" gradientTransform="rotate(-2.144 380.924 -578.575)">
        <stop offset=".069" stop-color="#ffd226"/>
        <stop offset=".443" stop-color="#ffcf01"/>
        <stop offset=".813" stop-color="#fdb81c"/>
        <stop offset=".976" stop-color="#faa61f"/>
      </linearGradient>
      <path d="M53.78 23.24c.16 4.38-.86 8.72-2.98 12.56l-3-1.15c1.84-3.31 3-7.48 2.86-11.29-.43-11.57-10.18-20.63-21.74-20.2-8.88.32-16.43 6.13-19.14 14.39-1.89.46-3.01 1.07-3.64 1.57l-.05-.02C8.38 8.28 17.73.42 28.8.02c13.29-.49 24.49 9.93 24.98 23.22z" fill="url(#c)"/>
      <path d="M92.72 29.81l-2.64 3.16v7.75H84.7V13.49h5.37v12h.04l9.42-12h6.81L96.31 25.51l10.37 15.22h-6.65l-7.26-10.92h-.05zM127.44 22.01v18.72h-4.77v-2.27h-.09c-1.33 1.72-3.2 2.58-5.6 2.58-1.29 0-2.48-.23-3.59-.69a8.435 8.435 0 0 1-2.85-1.94c-.79-.83-1.41-1.85-1.86-3.05-.45-1.2-.67-2.52-.67-3.94 0-1.4.22-2.7.67-3.91.45-1.21 1.06-2.24 1.84-3.09.78-.85 1.72-1.52 2.81-2s2.26-.73 3.49-.73c2.28 0 4.12.81 5.52 2.43h.08V22h5.02zm-6.18 13.12c.91-.95 1.37-2.18 1.37-3.69 0-1.5-.45-2.75-1.34-3.74s-2.02-1.5-3.38-1.5c-1.37 0-2.52.48-3.44 1.44-.92.96-1.38 2.23-1.38 3.8 0 1.51.45 2.74 1.34 3.69s2.04 1.42 3.45 1.42c1.34 0 2.47-.47 3.38-1.42zM146.21 22.13c.8.29 1.52.75 2.13 1.36.62.61 1.09 1.44 1.41 2.47.32 1.04.49 2.26.49 3.67v11.12h-5.02v-9.87c0-1.72-.29-2.93-.88-3.63-.59-.7-1.49-1.05-2.71-1.05-1.3 0-2.33.44-3.1 1.33-.77.89-1.15 2.15-1.15 3.78v9.42h-5.02V22.01h5.02v2.42h.06c.76-.89 1.66-1.56 2.71-2.03 1.04-.47 2.14-.7 3.3-.7 1.04-.01 1.96.14 2.76.43zM173.43 22.01v18.72h-4.77v-2.27h-.09c-1.33 1.72-3.2 2.58-5.6 2.58-1.29 0-2.48-.23-3.58-.69a8.338 8.338 0 0 1-2.85-1.94c-.79-.83-1.41-1.85-1.86-3.05-.45-1.2-.67-2.52-.67-3.94 0-1.4.22-2.7.67-3.91.45-1.21 1.06-2.24 1.84-3.09.78-.85 1.72-1.52 2.81-2s2.26-.73 3.49-.73c2.28 0 4.12.81 5.52 2.43h.08V22h5.01zm-6.18 13.12c.91-.95 1.37-2.18 1.37-3.69 0-1.5-.45-2.75-1.34-3.74s-2.02-1.5-3.38-1.5c-1.37 0-2.52.48-3.44 1.44-.92.96-1.38 2.23-1.38 3.8 0 1.51.45 2.74 1.34 3.69s2.04 1.42 3.45 1.42c1.35 0 2.47-.47 3.38-1.42zM189.49 21.71v5.5c-.5-.04-.94-.06-1.33-.06-1.5 0-2.67.46-3.51 1.37-.84.91-1.26 2.08-1.26 3.52v8.69h-5.02V22.01h5.02v2.75h.06c.71-.99 1.55-1.74 2.53-2.27s2.02-.8 3.13-.8c.17 0 .3 0 .38.02zM210.22 22.01l-10.09 26.31H195l3.33-8.74-7.49-17.56h5.24l4.59 11.59h.06l4.29-11.59h5.2zM211.42 38.3l2.43-3.46c1.56 1.46 3.29 2.19 5.19 2.19.71 0 1.27-.14 1.69-.43.41-.29.62-.66.62-1.12 0-.29-.12-.54-.37-.76-.25-.22-.6-.42-1.04-.61-.44-.19-1.11-.42-1.99-.71-.56-.19-1.06-.37-1.51-.56-.44-.19-.9-.41-1.36-.66s-.86-.54-1.19-.85c-.33-.31-.63-.66-.9-1.05a4.38 4.38 0 0 1-.61-1.33 6.01 6.01 0 0 1-.21-1.63c0-1.11.3-2.09.89-2.95s1.4-1.51 2.42-1.98 2.16-.69 3.44-.69c1.31 0 2.51.19 3.61.56s2.18.97 3.24 1.8l-2.43 3.67c-.7-.66-1.44-1.16-2.22-1.49-.78-.33-1.53-.5-2.26-.5-.47 0-.9.12-1.27.36-.38.24-.56.59-.56 1.04 0 .37.22.71.66 1.01.44.3 1.16.64 2.14 1.01 2.07.76 3.46 1.37 4.16 1.82 1.21.75 1.93 1.75 2.17 3 .07.37.11.79.11 1.25 0 1.73-.62 3.14-1.86 4.21-1.24 1.07-3.04 1.61-5.4 1.61-2.98 0-5.5-.92-7.59-2.75z"/>
      <g>
        <linearGradient id="d" gradientUnits="userSpaceOnUse" x1="26.589" y1="17.958" x2="52.724" y2="17.958" gradientTransform="matrix(1 .00854 -.00854 1 -10.097 -3.76)">
          <stop offset=".069" stop-color="#ffd226"/>
          <stop offset=".443" stop-color="#ffcf01"/>
          <stop offset=".813" stop-color="#fdb81c"/>
          <stop offset=".976" stop-color="#faa61f"/>
        </linearGradient>
        <path d="M42.45 16.85c-1.18.01-2.38.06-3.52.28-2.12-3-5.58-4.8-9.35-4.76-4.64.06-8.85 3.03-10.46 7.38l-.12-.04c-.83-.74-1.64-1.23-2.7-1.57 2.26-5.19 7.56-8.82 13.24-8.91 5.39-.05 10.36 2.86 12.91 7.62z" fill="url(#d)"/>
      </g>
      <linearGradient id="e" gradientUnits="userSpaceOnUse" x1="39.537" y1="16.894" x2="43.054" y2="16.894">
        <stop offset=".069" stop-color="#ffd226"/>
        <stop offset=".443" stop-color="#ffcf01"/>
        <stop offset=".813" stop-color="#fdb81c"/>
        <stop offset=".976" stop-color="#faa61f"/>
      </linearGradient>
      <path d="M43.05 16.74c-1.18.02-2.38.08-3.52.31" fill="url(#e)"/>
    </g>
  </switch>
</svg>
